<svg xmlns="http://www.w3.org/2000/svg" viewBox="0 0 48 48"><defs><style>.cls-1{fill:#f60;opacity:0;}.cls-2{fill:#8455bf;}</style></defs><g id="Letras"><g id="w"><rect class="cls-1" width="48" height="48"/><g id="W-2" data-name="W"><path class="cls-2" d="M209.56,562.74" transform="translate(-195.92 -540.72)"/><path class="cls-2" d="M225.87,570.61l-1-.16.82-4.75,7.77-12.83a2.58,2.58,0,0,0,.31-1.79,1.93,1.93,0,0,0-.9-1.3,2.25,2.25,0,0,0-3,1.06L228,554.23l-5.32,9a.61.61,0,0,1-.72.27.62.62,0,0,1-.43-.64l1.37-14.67a2.26,2.26,0,0,0-1.85-2.55,2.22,2.22,0,0,0-2.23,2.22l-1.25,14.82a.6.6,0,0,1-.55.54.59.59,0,0,1-.61-.46l-1.91-8.37-.82-3.82a2.24,2.24,0,0,0-2.51-1.91,1.89,1.89,0,0,0-1.25,1,2.6,2.6,0,0,0-.24,1.81l1.41,6.19-1,.23-1.41-6.2a3.62,3.62,0,0,1,.35-2.52,2.89,2.89,0,0,1,1.91-1.45,3.24,3.24,0,0,1,3.69,2.68l.82,3.82,1.33,5.79,1-12.19a3.06,3.06,0,1,1,6.07.5l-1.2,13,6.39-10.94a3.24,3.24,0,0,1,4.33-1.43,2.93,2.93,0,0,1,1.38,2,3.62,3.62,0,0,1-.43,2.5l-7.73,12.75ZM222.51,563Zm-5.15-.42h0Z" transform="translate(-195.92 -540.72)"/><path class="cls-2" d="M219.56,562.28" transform="translate(-195.92 -540.72)"/><path class="cls-2" d="M214.56,562.28" transform="translate(-195.92 -540.72)"/><path class="cls-2" d="M209.56,568.28a3,3,0,0,1-3-2.94v-5h1v5a2,2,0,0,0,4,0v-5h1v5A3,3,0,0,1,209.56,568.28Z" transform="translate(-195.92 -540.72)"/><path class="cls-2" d="M212.54,565.16h-1v-4.95a2,2,0,0,0-4,0v4.95h-1v-4.95a3,3,0,0,1,6,0Z" transform="translate(-195.92 -540.72)"/><path class="cls-2" d="M209.56,563.24" transform="translate(-195.92 -540.72)"/><path class="cls-2" d="M219.56,562.78" transform="translate(-195.92 -540.72)"/><path class="cls-2" d="M216.05,577.72c-2.27-6.21,2.59-8.5,2.64-8.52l.42.91c-.17.08-4.06,1.94-2.12,7.26Z" transform="translate(-195.92 -540.72)"/><path class="cls-2" d="M211.19,584.78a6.2,6.2,0,0,1-6.12-7.11l1.52-15.81,1,.09-1.52,15.84a5.2,5.2,0,0,0,5.13,6l11.39,0a3.53,3.53,0,0,0,3.47-3.32c0-.36,0-.74,0-1.16l0-2.09a19.67,19.67,0,0,0-.91-6,2.76,2.76,0,0,0-1.09-1.26l-7.66-4.9a2.07,2.07,0,1,0-2.14,3.49l3.32,2.1-.53.85-3.32-2.1a3.07,3.07,0,1,1,3.2-5.19l7.67,4.91a3.79,3.79,0,0,1,1.47,1.71,20,20,0,0,1,1,6.43l0,2.08c0,.45,0,.86,0,1.23a4.52,4.52,0,0,1-4.44,4.26l-1,0Z" transform="translate(-195.92 -540.72)"/><path class="cls-2" d="M218.87,561.47" transform="translate(-195.92 -540.72)"/></g></g></g></svg>