<svg xmlns="http://www.w3.org/2000/svg" viewBox="0 0 48 48"><defs><style>.cls-1{fill:#f60;opacity:0;}.cls-2{fill:#8455bf;}</style></defs><g id="Letras"><g id="f"><rect class="cls-1" width="48" height="48"/><path class="cls-2" d="M178.78,348.27l-.38-.89v-4.74a2.27,2.27,0,0,0-2.26-2.27h-1.4l-.29-.57a3.24,3.24,0,0,0-4.3-1.54,4.07,4.07,0,0,0-.48.33V329a3.09,3.09,0,0,0-3-3.14,3,3,0,0,0-2.55,1.42,3,3,0,0,0-2.54-1.42,3.1,3.1,0,0,0-3,3.14v5.15a2.86,2.86,0,0,0-2-.9,3.25,3.25,0,0,0-3,3.4v3.67l-1,15.92a6.2,6.2,0,0,0,6.12,7.12h11.7a5.84,5.84,0,0,0,3.32-1.63,13.94,13.94,0,0,0,4.67-6.9A16.81,16.81,0,0,0,178.78,348.27Zm-2.64-6.9a1.27,1.27,0,0,1,1.26,1.27v2.93l-2.15-4.21Zm-12.74,4h-3.26a2.24,2.24,0,0,1-2.39-2.05,2.1,2.1,0,0,1,1.72-1.95h0a2.76,2.76,0,0,1,.65-.09l8.53.05a3.71,3.71,0,0,0,.42,1.36l1.46,2.69H163.4Zm3.23-18.5a2.09,2.09,0,0,1,2,2.14v11.31l-4.09,0V329A2.1,2.1,0,0,1,166.63,326.88ZM159.49,329a2,2,0,1,1,4.09,0V340.3l-3.44,0a4.62,4.62,0,0,0-.65.06V329Zm17.75,25.55a13,13,0,0,1-4.35,6.41c-1.42,1.15-2.24,1.4-2.68,1.4h-11.7a5.21,5.21,0,0,1-5.13-6l1-16v-3.71a2.07,2.07,0,1,1,4.09,0v4a3,3,0,0,0-1.74,2.64,3.24,3.24,0,0,0,3.39,3.05h5.79l6.38,2.52-1.82,2.69.82.57,2.25-3.33L170,342.21a2.81,2.81,0,0,1-.3-.87v-.74a1.25,1.25,0,0,1,0-.19,1.91,1.91,0,0,1,.93-1.28,2.23,2.23,0,0,1,2.93,1.12l4.23,8.22A15.53,15.53,0,0,1,177.24,354.57Z" transform="translate(-141.6 -320.63)"/></g></g></svg>