<svg xmlns="http://www.w3.org/2000/svg" viewBox="0 0 48 48"><defs><style>.cls-1{fill:#f60;opacity:0;}.cls-2{fill:#8455bf;}</style></defs><g id="Letras"><g id="x"><rect class="cls-1" width="48" height="48"/><g id="X-2" data-name="X"><path class="cls-2" d="M45.45,628.52" transform="translate(-32.48 -599.15)"/><path class="cls-2" d="M57.33,623.3H52v-1h5.35a2.08,2.08,0,0,0,2.15-2h1A3.07,3.07,0,0,1,57.33,623.3Z" transform="translate(-32.48 -599.15)"/><path class="cls-2" d="M52,617.85" transform="translate(-32.48 -599.15)"/><path class="cls-2" d="M55,623.3H49.62a3,3,0,1,1,0-5.95H56v1H49.62a2,2,0,1,0,0,3.95H55Z" transform="translate(-32.48 -599.15)"/><path class="cls-2" d="M54,620.32" transform="translate(-32.48 -599.15)"/><path class="cls-2" d="M45,617.8" transform="translate(-32.48 -599.15)"/><path class="cls-2" d="M50.33,612.85" transform="translate(-32.48 -599.15)"/><path class="cls-2" d="M48.18,612.85" transform="translate(-32.48 -599.15)"/><rect class="cls-2" x="12.5" y="13.2" width="15.21" height="1"/><rect class="cls-2" x="10.75" y="18.15" width="12.8" height="1"/><path class="cls-2" d="M47,615.32" transform="translate(-32.48 -599.15)"/><path class="cls-2" d="M43.06,615.9" transform="translate(-32.48 -599.15)"/><path class="cls-2" d="M37,611.87" transform="translate(-32.48 -599.15)"/><path class="cls-2" d="M37.49,614" transform="translate(-32.48 -599.15)"/><path class="cls-2" d="M38.25,617.07" transform="translate(-32.48 -599.15)"/><path class="cls-2" d="M41.29,621.91a3.1,3.1,0,0,1-3-2.43l-.69-3.29a3.31,3.31,0,0,1,.66-2.71,2.93,2.93,0,0,1,2.27-1.13H46v1H40.62a2,2,0,0,0-1.54.75,2.34,2.34,0,0,0-.46,1.89l.68,3.27a2,2,0,1,0,3.84-1l-.56-2.3,1-.23.56,2.29a3,3,0,0,1-2.82,3.84Z" transform="translate(-32.48 -599.15)"/><path class="cls-2" d="M40.18,614.54" transform="translate(-32.48 -599.15)"/><path class="cls-2" d="M57.33,628.3H52v-1h5.35a2,2,0,1,0,0-3.95H52v-1h5.35a3,3,0,1,1,0,5.95Z" transform="translate(-32.48 -599.15)"/><path class="cls-2" d="M55,628.3H49.62a3,3,0,1,1,0-5.95H55v1H49.62a2,2,0,1,0,0,3.95H55Z" transform="translate(-32.48 -599.15)"/><path class="cls-2" d="M54,625.32" transform="translate(-32.48 -599.15)"/><path class="cls-2" d="M57.33,633.3H52v-1h5.35a2,2,0,1,0,0-3.95H52v-1h5.35a3,3,0,1,1,0,5.95Z" transform="translate(-32.48 -599.15)"/><path class="cls-2" d="M57,633.3H51.62a3,3,0,1,1,0-5.95H57v1H51.62a2,2,0,1,0,0,3.95H57Z" transform="translate(-32.48 -599.15)"/><path class="cls-2" d="M54,630.32" transform="translate(-32.48 -599.15)"/><path class="cls-2" d="M69.79,634.88a7,7,0,0,1-.92-.06L57.41,633.3l.13-1L69,633.82a5.19,5.19,0,0,0,6-5.13V614.9a4.8,4.8,0,0,0-4.13-4.73l-4.46-.69a2.43,2.43,0,0,0-2.59.54l-7,7a2.25,2.25,0,0,0-.19,3.14,1.94,1.94,0,0,0,1.5.5,2.63,2.63,0,0,0,1.64-.81l2.77-2.8.71.7-2.76,2.8a3.6,3.6,0,0,1-2.28,1.1,2.85,2.85,0,0,1-2.27-.77,3.25,3.25,0,0,1,.16-4.56l7-7a3.37,3.37,0,0,1,3.54-.79l4.35.66a5.8,5.8,0,0,1,5,5.72v13.79a6.21,6.21,0,0,1-6.19,6.19Z" transform="translate(-32.48 -599.15)"/><path class="cls-2" d="M54.44,630.32" transform="translate(-32.48 -599.15)"/><path class="cls-2" d="M67.75,620.16a6.15,6.15,0,0,1-6.31-4.5l1-.21c0,.18,1,4.37,6.65,3.61l.13,1A10.8,10.8,0,0,1,67.75,620.16Z" transform="translate(-32.48 -599.15)"/><rect class="cls-2" x="9.55" y="36.21" width="8.95" height="1"/><polyline class="cls-2" points="18.05 34.59 20.17 36.71 18.05 38.83"/></g></g></g></svg>