<svg xmlns="http://www.w3.org/2000/svg" viewBox="0 0 48 48"><defs><style>.cls-1{fill:#f60;opacity:0;}.cls-2{fill:#8455bf;}</style></defs><g id="Letras"><g id="y"><rect class="cls-1" width="48" height="48"/><g id="Y-2" data-name="Y"><path class="cls-2" d="M109.54,624.09a3.06,3.06,0,0,1-3-3.14v-5.36h1V621a2,2,0,1,0,4,0v-5.36h1V621A3.07,3.07,0,0,1,109.54,624.09Z" transform="translate(-87.93 -598.41)"/><path class="cls-2" d="M112.52,618.59h-1v-5.36a2,2,0,1,0-4,0v5.36h-1v-5.36a3,3,0,1,1,6,0Z" transform="translate(-87.93 -598.41)"/><path class="cls-2" d="M109.54,617.59" transform="translate(-87.93 -598.41)"/><path class="cls-2" d="M114.54,624.09a3.06,3.06,0,0,1-3-3.14v-5.36h1V621a2,2,0,1,0,4,0v-5.36h1V621A3.07,3.07,0,0,1,114.54,624.09Z" transform="translate(-87.93 -598.41)"/><path class="cls-2" d="M117.52,618.59h-1v-5.36a2,2,0,1,0-4,0v5.36h-1v-5.36a3,3,0,1,1,6,0Z" transform="translate(-87.93 -598.41)"/><path class="cls-2" d="M114.54,617.59" transform="translate(-87.93 -598.41)"/><path class="cls-2" d="M104.54,624.09a3.06,3.06,0,0,1-3-3.14v-5.36h1V621a2,2,0,1,0,4,0v-5.36h1V621A3.07,3.07,0,0,1,104.54,624.09Z" transform="translate(-87.93 -598.41)"/><path class="cls-2" d="M107.52,618.59h-1v-5.36a2,2,0,1,0-4,0v5.36h-1v-5.36a3,3,0,1,1,6,0Z" transform="translate(-87.93 -598.41)"/><path class="cls-2" d="M104.54,617.59" transform="translate(-87.93 -598.41)"/><path class="cls-2" d="M102.11,621.73" transform="translate(-87.93 -598.41)"/><path class="cls-2" d="M102.09,621.66" transform="translate(-87.93 -598.41)"/><path class="cls-2" d="M102.07,621.55" transform="translate(-87.93 -598.41)"/><path class="cls-2" d="M111.57,639.59h-10.4a6.19,6.19,0,0,1-6.12-7.11l1.32-11L93.49,609a3.22,3.22,0,0,1,.34-2.34,2.88,2.88,0,0,1,4.13-1,3.22,3.22,0,0,1,1.33,2l1.21,5.22,2,8.29-1,.23-3.2-13.51a2.25,2.25,0,0,0-.92-1.36,1.89,1.89,0,0,0-1.49-.28,1.85,1.85,0,0,0-1.21.91,2.22,2.22,0,0,0-.23,1.62l2.91,12.61L96,632.61a5.19,5.19,0,0,0,5.13,6h10.4a6.13,6.13,0,0,0,4.6-2.08l3.71-4.61,8.88-10.14a2.93,2.93,0,0,0,.7-1.91,2.09,2.09,0,0,0-.73-1.61,2.51,2.51,0,0,0-3.48.57l-2.89,3.41a3.64,3.64,0,0,1-3.49.92,3.15,3.15,0,0,1-2.3-2.4l1-.24a2.14,2.14,0,0,0,1.58,1.67,2.62,2.62,0,0,0,2.51-.64l.11-.11,2.74-3.26a3.51,3.51,0,0,1,4.89-.69,3.11,3.11,0,0,1,1.09,2.36,3.91,3.91,0,0,1-.94,2.58l-8.87,10.13-3.71,4.62A7.16,7.16,0,0,1,111.57,639.59Z" transform="translate(-87.93 -598.41)"/><path class="cls-2" d="M97.54,607.59" transform="translate(-87.93 -598.41)"/><path class="cls-2" d="M99.54,618.05" transform="translate(-87.93 -598.41)"/></g></g></g></svg>