<svg xmlns="http://www.w3.org/2000/svg" viewBox="0 0 48 48"><defs><style>.cls-1{fill:#f60;opacity:0;}.cls-2{fill:#8455bf;}</style></defs><g id="Letras"><g id="p"><rect class="cls-1" width="48" height="48"/><g id="P-2" data-name="P"><path class="cls-2" d="M56.93,518.81H52v-1h5a2,2,0,0,0,0-4H52v-1h5a3,3,0,0,1,0,6Z" transform="translate(-32.83 -483.11)"/><path class="cls-2" d="M56.75,518.81H51.81a3,3,0,0,1,0-6h4.94v1H51.81a2,2,0,0,0,0,4h4.94Z" transform="translate(-32.83 -483.11)"/><path class="cls-2" d="M52,503.31l-9.56-2.62a3.59,3.59,0,0,1-2.06-1.47,2.88,2.88,0,0,1-.41-2.37,3.25,3.25,0,0,1,4.08-2l9.77,2.88-.28,1-9.76-2.87A2.24,2.24,0,0,0,41,497.12a1.9,1.9,0,0,0,.28,1.55,2.59,2.59,0,0,0,1.5,1.05l9.56,2.63Z" transform="translate(-32.83 -483.11)"/><path class="cls-2" d="M40.56,511.25a3.52,3.52,0,0,1-1.86-.52,2.84,2.84,0,0,1-.72-4.29,3.58,3.58,0,0,1,2.21-1.25L53.64,503l.15,1-13.44,2.15a2.54,2.54,0,0,0-1.59.89,1.87,1.87,0,0,0-.44,1.51,1.9,1.9,0,0,0,.91,1.3,2.56,2.56,0,0,0,1.79.33l6.82-1.13.16,1-6.81,1.13A4.46,4.46,0,0,1,40.56,511.25Z" transform="translate(-32.83 -483.11)"/><path class="cls-2" d="M54.37,505.83" transform="translate(-32.83 -483.11)"/><path class="cls-2" d="M57.73,513.81H52.37v-1h5.36a2,2,0,1,0,0-4H52.37v-1h5.36a3,3,0,1,1,0,6Z" transform="translate(-32.83 -483.11)"/><path class="cls-2" d="M55.37,513.81H50a3,3,0,1,1,0-6h5.36v1H50a2,2,0,1,0,0,4h5.36Z" transform="translate(-32.83 -483.11)"/><path class="cls-2" d="M54.37,510.83" transform="translate(-32.83 -483.11)"/><path class="cls-2" d="M70.18,520.39a5.62,5.62,0,0,1-.92-.07l-15.81-1.51.09-1,15.84,1.52a5.2,5.2,0,0,0,6-5.13V502.5c0-.44-.25-1.27-1.4-2.69a13.11,13.11,0,0,0-6.41-4.35,15.72,15.72,0,0,0-6.1-.54l-8.21,4.23A2.55,2.55,0,0,0,52,500.51,1.83,1.83,0,0,0,53.4,503a2.64,2.64,0,0,0,1.81-.27l6.61-3.59,3.33,2.24-.56.83-2.82-1.9-6.09,3.3a3.66,3.66,0,0,1-2.5.37,2.83,2.83,0,0,1-2.08-3.83,3.62,3.62,0,0,1,1.68-1.9l8.48-4.33a16.63,16.63,0,0,1,6.58.58,13.89,13.89,0,0,1,6.9,4.67,5.75,5.75,0,0,1,1.63,3.32v11.7a6.19,6.19,0,0,1-6.19,6.19Z" transform="translate(-32.83 -483.11)"/></g></g></g></svg>