<svg xmlns="http://www.w3.org/2000/svg" viewBox="0 0 48 48"><defs><style>.cls-1{fill:#f60;opacity:0;}.cls-2{fill:#8455bf;}</style></defs><g id="Letras"><g id="k"><rect class="cls-1" width="48" height="48"/><g id="K-2" data-name="K"><path class="cls-2" d="M209.77,402.27a3,3,0,0,1-3-2.94v-4.95h1v4.95a2,2,0,0,0,4,0v-4.95h1v4.95A3,3,0,0,1,209.77,402.27Z" transform="translate(-195.71 -375.23)"/><path class="cls-2" d="M212.75,399.15h-1v-4.94a2,2,0,0,0-4,0v4.94h-1v-4.94a3,3,0,0,1,6,0Z" transform="translate(-195.71 -375.23)"/><path class="cls-2" d="M227.91,396.25l-1-.28,2.87-9.76a2.61,2.61,0,0,0-.14-1.81,1.85,1.85,0,0,0-2.75-.76,2.59,2.59,0,0,0-1.05,1.5l-2.63,9.56-1-.27,2.62-9.56a3.62,3.62,0,0,1,1.47-2.06,2.88,2.88,0,0,1,2.37-.41,2.91,2.91,0,0,1,1.83,1.56,3.63,3.63,0,0,1,.21,2.52Z" transform="translate(-195.71 -375.23)"/><path class="cls-2" d="M221.57,396.19l-2.15-13.44a2.54,2.54,0,0,0-.89-1.59,1.88,1.88,0,0,0-1.52-.44,2.25,2.25,0,0,0-1.62,2.7l1.13,6.82-1,.16-1.13-6.81a3.24,3.24,0,0,1,2.45-3.85,2.86,2.86,0,0,1,2.31.64,3.56,3.56,0,0,1,1.25,2.21L222.56,396Z" transform="translate(-195.71 -375.23)"/><path class="cls-2" d="M219.77,396.77" transform="translate(-195.71 -375.23)"/><path class="cls-2" d="M214.77,403.27a3.07,3.07,0,0,1-3-3.14v-5.36h1v5.36a2,2,0,1,0,4,0v-5.36h1v5.36A3.07,3.07,0,0,1,214.77,403.27Z" transform="translate(-195.71 -375.23)"/><path class="cls-2" d="M217.75,397.77h-1v-5.36a2,2,0,1,0-4,0v5.36h-1v-5.36a3,3,0,1,1,6,0Z" transform="translate(-195.71 -375.23)"/><path class="cls-2" d="M214.77,396.77" transform="translate(-195.71 -375.23)"/><path class="cls-2" d="M223.1,418.77H211.4a6.19,6.19,0,0,1-6.12-7.11l1.51-15.81,1,.1-1.52,15.83a5.2,5.2,0,0,0,5.13,6h11.7c.44,0,1.27-.24,2.68-1.4a13,13,0,0,0,4.35-6.41,15.53,15.53,0,0,0,.55-6.1l-4.23-8.21a2.24,2.24,0,0,0-2.93-1.13,1.91,1.91,0,0,0-.93,1.28,2.64,2.64,0,0,0,.27,1.81l3.59,6.61-2.24,3.33-.83-.56,1.9-2.82-3.3-6.09a3.66,3.66,0,0,1-.37-2.5,2.93,2.93,0,0,1,1.43-1.94,3.24,3.24,0,0,1,4.3,1.54l4.33,8.48a16.63,16.63,0,0,1-.58,6.58,13.94,13.94,0,0,1-4.67,6.9A5.75,5.75,0,0,1,223.1,418.77Z" transform="translate(-195.71 -375.23)"/><rect class="cls-2" x="36.6" y="13.75" width="1" height="8.24"/><polyline class="cls-2" points="35.67 14.04 37.08 12.62 38.5 14.04"/></g></g></g></svg>