<svg xmlns="http://www.w3.org/2000/svg" viewBox="0 0 48 48"><defs><style>.cls-1{fill:#f60;opacity:0;}.cls-2{fill:#8455bf;}</style></defs><g id="Letras"><g id="o"><rect class="cls-1" width="48" height="48"/><g id="O-2" data-name="O"><path class="cls-2" d="M221.88,466.69l-8.61-1.62a7.14,7.14,0,0,1-5.06-3.71L205.48,456a2.13,2.13,0,0,1-.6-1.48,2.1,2.1,0,0,1,.67-1.55l.14-.12a2.12,2.12,0,0,1-.81-1.66v-.13l1.4-5.61a6.81,6.81,0,0,1,5.46-4.95l7.8-1.43a9.6,9.6,0,0,1,7.43,1.71l6.86,7a5.27,5.27,0,0,1,1.54,3.7V461.9a3.84,3.84,0,0,1-3.52,3.73Zm-14.75-13.32a1.27,1.27,0,0,0-.89.34,1.1,1.1,0,0,0,0,1.63l.1.14,2.76,5.43a6.12,6.12,0,0,0,4.36,3.18l8.46,1.59,9.83-1a2.84,2.84,0,0,0,2.63-2.74V451.46a4.3,4.3,0,0,0-1.25-3l-6.81-6.92a8.5,8.5,0,0,0-6.59-1.47l-7.8,1.43a5.83,5.83,0,0,0-4.67,4.2l-1.38,5.55a1.22,1.22,0,0,0,1.27,1.11c.39-.05,1.56-1.52,2.49-3.15a8.85,8.85,0,0,1,8.24-5.18c4.62.06,8.58,3.79,8.64,8.16a8,8,0,0,1-2.34,5.75,9,9,0,0,1-6.41,2.64,8.81,8.81,0,0,1-8-4.9,4.5,4.5,0,0,0-1.63-1.91A1.5,1.5,0,0,0,207.13,453.37Zm1.22-.68a2.19,2.19,0,0,1,.39.29,5.44,5.44,0,0,1,1.93,2.27,7.81,7.81,0,0,0,7.1,4.33,8,8,0,0,0,5.7-2.34,7,7,0,0,0,2.05-5c-.05-3.84-3.56-7.12-7.65-7.17h-.1a7.82,7.82,0,0,0-7.23,4.62A15.31,15.31,0,0,1,208.35,452.69Z" transform="translate(-196.13 -428.81)"/><path class="cls-2" d="M210.05,453.3a2,2,0,0,1-1.94-1.5l1-.27a1,1,0,0,0,.56.68,1.12,1.12,0,0,0,1,0,6,6,0,0,0,2-1.4c1.9-2.69,3.81-4.44,7.1-4.44a9.32,9.32,0,0,1,6.16,2.87l-.75.67a8.21,8.21,0,0,0-5.42-2.54c-2.84,0-4.51,1.51-6.28,4a6.5,6.5,0,0,1-2.32,1.72A2.22,2.22,0,0,1,210.05,453.3Z" transform="translate(-196.13 -428.81)"/></g></g></g></svg>