<svg xmlns="http://www.w3.org/2000/svg" viewBox="0 0 48 48"><defs><style>.cls-1{fill:#f60;opacity:0;}.cls-2{fill:#8455bf;}</style></defs><g id="Letras"><g id="z"><rect class="cls-1" width="48" height="48"/><path class="cls-2" d="M152.88,623" transform="translate(-143.86 -598.99)"/><path class="cls-2" d="M154.88,629a3.06,3.06,0,0,1-3-3.15v-5.35h1v5.35a2,2,0,1,0,4,0v-5.35h1v5.35A3.07,3.07,0,0,1,154.88,629Z" transform="translate(-143.86 -598.99)"/><path class="cls-2" d="M157.86,625.49h-1v-5.36a2,2,0,1,0-4,0v5.36h-1v-5.36a3,3,0,1,1,6,0Z" transform="translate(-143.86 -598.99)"/><path class="cls-2" d="M154.88,622.49" transform="translate(-143.86 -598.99)"/><path class="cls-2" d="M154.88,623" transform="translate(-143.86 -598.99)"/><path class="cls-2" d="M164.88,626.74a3.06,3.06,0,0,1-3-3.15v-5.35h1v5.35a2.07,2.07,0,0,0,2,2.15Z" transform="translate(-143.86 -598.99)"/><path class="cls-2" d="M167.36,618.24" transform="translate(-143.86 -598.99)"/><path class="cls-2" d="M167.86,622.24h-1v-6.36a2,2,0,1,0-4,0v5.36h-1v-5.36a3,3,0,1,1,6,0Z" transform="translate(-143.86 -598.99)"/><path class="cls-2" d="M164.88,620.24" transform="translate(-143.86 -598.99)"/><path class="cls-2" d="M167.41,609.24" transform="translate(-143.86 -598.99)"/><path class="cls-2" d="M172.36,614.59" transform="translate(-143.86 -598.99)"/><path class="cls-2" d="M172.36,612.44" transform="translate(-143.86 -598.99)"/><rect class="cls-2" x="28" y="10.25" width="1" height="17.21"/><path class="cls-2" d="M167.91,622.24h-1V606.88a3,3,0,1,1,6,0v5.36h-1v-5.36a2,2,0,1,0-4,0Z" transform="translate(-143.86 -598.99)"/><path class="cls-2" d="M169.88,611.24" transform="translate(-143.86 -598.99)"/><path class="cls-2" d="M159.88,626.74a3.06,3.06,0,0,1-3-3.15v-5.35h1v5.35a2,2,0,1,0,4,0v-5.35h1v5.35A3.07,3.07,0,0,1,159.88,626.74Z" transform="translate(-143.86 -598.99)"/><path class="cls-2" d="M162.86,621.24h-1v-5.36a2,2,0,1,0-4,0v5.36h-1v-5.36a3,3,0,1,1,6,0Z" transform="translate(-143.86 -598.99)"/><path class="cls-2" d="M159.88,620.24" transform="translate(-143.86 -598.99)"/><path class="cls-2" d="M170.3,642.24H156.51a6.2,6.2,0,0,1-6.12-7.11l1.52-11.46,1,.13-1.52,11.46a5.2,5.2,0,0,0,5.13,6H170.3a4.79,4.79,0,0,0,4.73-4.13l.7-4.46a2.48,2.48,0,0,0-.54-2.59l-7-7a2.07,2.07,0,1,0-2.83,2.95l2.8,2.77-.7.71-2.8-2.76a3.07,3.07,0,1,1,4.23-4.39l7,7a3.39,3.39,0,0,1,.79,3.54l-.67,4.35A5.79,5.79,0,0,1,170.3,642.24Z" transform="translate(-143.86 -598.99)"/><path class="cls-2" d="M165.15,635.46c-.89-6.55,4.34-7.75,4.4-7.76l.21,1c-.18,0-4.38,1-3.61,6.65Z" transform="translate(-143.86 -598.99)"/><path class="cls-2" d="M183.47,611.74h-7.24l-.18-.39a.57.57,0,0,1,.19-.63l5.77-4.48h-6.1v-1h7.72l.18.38a.56.56,0,0,1-.18.63l-5.78,4.49h5.62Z" transform="translate(-143.86 -598.99)"/><polyline class="cls-2" points="39.63 10.34 41.54 12.25 39.63 14.16"/></g></g></svg>