<svg xmlns="http://www.w3.org/2000/svg" viewBox="0 0 48 48"><defs><style>.cls-1{fill:#f60;opacity:0;}.cls-2{fill:#8455bf;}</style></defs><g id="Letras"><g id="รง"><rect class="cls-1" width="48" height="48"/><g id="รง-2" data-name="รง"><g id="C"><path class="cls-2" d="M210.76,306.43a5.58,5.58,0,0,1-5.54-5L205,299.3a5.75,5.75,0,0,1,.24-2.47l2.51-7.72c4.15-10.93,17.63-7.39,17.77-7.35l3.69,1.51a2.3,2.3,0,0,1,1.38,1.45,2,2,0,0,1-.28,1.72,2.69,2.69,0,0,1-3,.95l-.93-.28a9.4,9.4,0,0,0-7.81,1.07,6.08,6.08,0,0,0-2.84,4.44c0,.18,0,.36,0,.55A6.32,6.32,0,0,0,226,298l3.5-3a3.28,3.28,0,0,1,4.14.07,2.38,2.38,0,0,1-.09,3.73l-5.15,4.54a11.86,11.86,0,0,1-7.75,2.8l-9.7.33Zm9.56-24.3c-4,0-9.37,1.23-11.67,7.31l-2.51,7.7a4.86,4.86,0,0,0-.2,2h0l.27,2.16a4.62,4.62,0,0,0,4.71,4.09l9.72-.34a10.87,10.87,0,0,0,7.11-2.55l5.17-4.55a1.51,1.51,0,0,0,.59-1.11,1.46,1.46,0,0,0-.52-1.11,2.24,2.24,0,0,0-2.84,0l-3.49,3a7.32,7.32,0,0,1-12-5.55c0-.22,0-.43,0-.65a7,7,0,0,1,3.27-5.17,10.43,10.43,0,0,1,8.66-1.2l.93.29a1.72,1.72,0,0,0,1.87-.56,1,1,0,0,0,.15-.87,1.32,1.32,0,0,0-.79-.81l-3.64-1.49A20.13,20.13,0,0,0,220.32,282.13Z" transform="translate(-196.59 -265.57)"/><path class="cls-2" d="M229.66,287v-1a4.38,4.38,0,0,0,1.38-.18,1.2,1.2,0,0,0,.55-.78,1.26,1.26,0,0,0-.23-1l-.15-.21a13.58,13.58,0,0,0-9.25-5.57,11,11,0,0,0-7.21,1.59c-1.12.7-2.49,3.15-2.91,4.79l-1-.25c.48-1.86,2-4.54,3.36-5.39a11.89,11.89,0,0,1,7.84-1.73,14.58,14.58,0,0,1,9.95,6l.15.21a2.26,2.26,0,0,1,.4,1.79,2.16,2.16,0,0,1-1,1.45A5.15,5.15,0,0,1,229.66,287Z" transform="translate(-196.59 -265.57)"/><path class="cls-2" d="M232.42,285.45l-.18-1h.08a.84.84,0,0,0,.53-.43,1,1,0,0,0,0-.82l-.08-.21a12.39,12.39,0,0,0-6.46-6.76,9.34,9.34,0,0,0-6.19-.48,11,11,0,0,0-3,2.95l-.78-.63c.9-1.11,2.56-3,3.57-3.29a10.31,10.31,0,0,1,6.84.53,13.31,13.31,0,0,1,7,7.31l.09.2a2,2,0,0,1-.05,1.65,1.86,1.86,0,0,1-1.19.95Z" transform="translate(-196.59 -265.57)"/></g><path class="cls-2" d="M213,277.28h-1a4.56,4.56,0,0,1,4.56-4.56v1A3.56,3.56,0,0,0,213,277.28Z" transform="translate(-196.59 -265.57)"/><path class="cls-2" d="M214.36,277.46h-1a3.42,3.42,0,0,1,3.42-3.42v1A2.43,2.43,0,0,0,214.36,277.46Z" transform="translate(-196.59 -265.57)"/><path class="cls-2" d="M231.71,305v-1a3.57,3.57,0,0,0,3.57-3.57h1A4.58,4.58,0,0,1,231.71,305Z" transform="translate(-196.59 -265.57)"/><path class="cls-2" d="M231.54,303.63v-1a2.41,2.41,0,0,0,2.41-2.41h1A3.41,3.41,0,0,1,231.54,303.63Z" transform="translate(-196.59 -265.57)"/></g></g></g></svg>