<svg xmlns="http://www.w3.org/2000/svg" viewBox="0 0 48 48"><defs><style>.cls-1{fill:#f60;opacity:0;}.cls-2{fill:#8455bf;}</style></defs><g id="Letras"><g id="m"><rect class="cls-1" width="48" height="48"/><g id="M-2" data-name="M"><g id="base"><path class="cls-2" d="M119,459.34" transform="translate(-87.48 -429.16)"/><path class="cls-2" d="M107.65,454.34" transform="translate(-87.48 -429.16)"/></g><path class="cls-2" d="M116.47,470.49a3.24,3.24,0,0,1-3-3.4l.1-10.26h1l-.1,10.26a2.07,2.07,0,1,0,4.1,0V456.63l.34-.12a5.13,5.13,0,0,0,2.65-2.31l1-13.36a5.19,5.19,0,0,0-5.13-6h-11.7a5.19,5.19,0,0,0-5.19,5.19v8.62q0,1.07,0,2l.08,6.79a1.82,1.82,0,0,0,.77,1.54c1.18.76,2.27-.83,2.32-.9l.83.55c-.57.87-2.09,2.22-3.69,1.19a2.82,2.82,0,0,1-1.23-2.37l-.08-6.81c0-.61,0-1.27,0-2V440a6.19,6.19,0,0,1,6.19-6.19h11.7a6.19,6.19,0,0,1,6.12,7.11l-1,13.61a6,6,0,0,1-2.93,2.76v9.77A3.24,3.24,0,0,1,116.47,470.49Z" transform="translate(-87.48 -429.16)"/><path class="cls-2" d="M106.47,470.49a3.24,3.24,0,0,1-3-3.4l.1-10.26h1l-.1,10.26a2.07,2.07,0,1,0,4.1,0V456.84h1v10.25A3.24,3.24,0,0,1,106.47,470.49Z" transform="translate(-87.48 -429.16)"/><path class="cls-2" d="M111.47,472.49a3.24,3.24,0,0,1-3-3.4l.1-12.26h1l-.1,12.26a2.07,2.07,0,1,0,4.1,0V456.84h1v12.25A3.24,3.24,0,0,1,111.47,472.49Z" transform="translate(-87.48 -429.16)"/></g></g></g></svg>