<svg xmlns="http://www.w3.org/2000/svg" viewBox="0 0 48 48"><defs><style>.cls-1{fill:#f60;opacity:0;}.cls-2{fill:#8455bf;}</style></defs><g id="Letras"><g id="l"><rect class="cls-1" width="48" height="48"/><g id="L-2" data-name="L"><path class="cls-2" d="M57.28,471.16H46.89a6.19,6.19,0,0,1-6.13-7.11l1.52-15.8,1,.09-1.52,15.84a5.19,5.19,0,0,0,5.14,6H57.28a6.1,6.1,0,0,0,4.6-2.08l2.95-4,7.41-9.77a2.56,2.56,0,0,0,.5-1.75,1.9,1.9,0,0,0-.75-1.39,2.24,2.24,0,0,0-3.06.74l-2.41,3.28a2.62,2.62,0,0,1-4.65-1.69l.27-15.64a2.07,2.07,0,1,0-4.09,0v5.91h-1v-5.91a3.06,3.06,0,1,1,6.09,0l-.27,15.65a1.62,1.62,0,0,0,2.87,1l.1-.11,2.28-3.13a3.24,3.24,0,0,1,4.46-1,2.89,2.89,0,0,1,1.16,2.11,3.54,3.54,0,0,1-.7,2.43L62.66,468.71A7.15,7.15,0,0,1,57.28,471.16Z" transform="translate(-33.22 -428.84)"/><path class="cls-2" d="M55.25,457.66a3.06,3.06,0,0,1-3-3.14v-5.36h1v5.36a2,2,0,1,0,3.95,0v-5.36h1v5.36A3.06,3.06,0,0,1,55.25,457.66Z" transform="translate(-33.22 -428.84)"/><path class="cls-2" d="M58.23,450.16h-1v-5.35a2,2,0,1,0-3.95,0v5.35h-1v-5.35a3,3,0,1,1,5.95,0Z" transform="translate(-33.22 -428.84)"/><path class="cls-2" d="M55.25,449.16" transform="translate(-33.22 -428.84)"/><path class="cls-2" d="M50.25,457.66a3.06,3.06,0,0,1-3-3.14v-5.36h1v5.36a2,2,0,1,0,3.95,0v-5.36h1v5.36A3.06,3.06,0,0,1,50.25,457.66Z" transform="translate(-33.22 -428.84)"/><path class="cls-2" d="M53.23,450.16h-1v-5.35a2,2,0,1,0-3.95,0v5.35h-1v-5.35a3,3,0,1,1,5.95,0Z" transform="translate(-33.22 -428.84)"/><path class="cls-2" d="M50.25,449.16" transform="translate(-33.22 -428.84)"/><path class="cls-2" d="M45.25,456.66a3,3,0,0,1-3-2.93v-5h1v5a2,2,0,0,0,3.95,0v-5h1v5A3,3,0,0,1,45.25,456.66Z" transform="translate(-33.22 -428.84)"/><path class="cls-2" d="M48.23,451.55h-1V446.6a2,2,0,0,0-3.95,0v4.95h-1V446.6a3,3,0,0,1,5.95,0Z" transform="translate(-33.22 -428.84)"/><path class="cls-2" d="M45.25,449.63" transform="translate(-33.22 -428.84)"/></g></g></g></svg>