<svg xmlns="http://www.w3.org/2000/svg" viewBox="0 0 48 48"><defs><style>.cls-1{fill:#f60;opacity:0;}.cls-2{fill:#8455bf;}</style></defs><g id="Letras"><g id="e"><rect class="cls-1" width="48" height="48"/><g id="E-2" data-name="E"><g id="B"><g id="A"><path class="cls-2" d="M106,344.49" transform="translate(-88.29 -320.25)"/><path class="cls-2" d="M112.46,343.84" transform="translate(-88.29 -320.25)"/></g></g><g id="A-2" data-name="A"><path class="cls-2" d="M117.79,342.75a2.88,2.88,0,0,1-2-.83l.7-.72a1.86,1.86,0,0,0,1.33.55,2,2,0,0,0,1.92-2v-7a2,2,0,0,0-1.92-2,1.93,1.93,0,0,0-1.67,1l-.87-.49a2.93,2.93,0,0,1,2.54-1.5,3,3,0,0,1,2.92,3v7A3,3,0,0,1,117.79,342.75Z" transform="translate(-88.29 -320.25)"/><path class="cls-2" d="M113.9,342.75a2.89,2.89,0,0,1-2.22-1.05l.77-.64a1.87,1.87,0,0,0,1.45.69,2,2,0,0,0,1.93-2v-7a2,2,0,0,0-1.93-2,1.94,1.94,0,0,0-1.84,1.42l-1-.28a2.92,2.92,0,0,1,5.73.86v7A3,3,0,0,1,113.9,342.75Z" transform="translate(-88.29 -320.25)"/><path class="cls-2" d="M110,343.75a2.88,2.88,0,0,1-2-.77l.68-.74a1.87,1.87,0,0,0,1.28.51,2,2,0,0,0,1.93-2v-7a1.93,1.93,0,1,0-3.86,0h-1a2.93,2.93,0,1,1,5.86,0v7A3,3,0,0,1,110,343.75Z" transform="translate(-88.29 -320.25)"/><path class="cls-2" d="M123.21,352.56" transform="translate(-88.29 -320.25)"/><path class="cls-2" d="M117.86,358.75h-12a6.19,6.19,0,0,1-6.12-7.11l1-14.43c0-2.32,3.91-4.46,5.43-4.46a3,3,0,0,1,2.93,3v7a2.93,2.93,0,1,1-5.86,0v-4.63h1v4.63a1.93,1.93,0,1,0,3.86,0v-7a2,2,0,0,0-1.93-2c-1.11,0-4.43,1.82-4.43,3.5l-1,14.5a5.19,5.19,0,0,0,5.13,6h12a2.74,2.74,0,0,0,2-.81l2.92-2.92a4.14,4.14,0,0,0,1-4.18l-1.86-4.13a1.87,1.87,0,0,0-1.67-1.1l-8.08-.13a1.61,1.61,0,1,0,0,3.17l5.42,0-.44.76h0s-.45,1,1.56,3.21l-.73.68c-1.58-1.71-1.89-2.93-1.87-3.65l-4,0a2.6,2.6,0,1,1,0-5.17l8.09.13a2.87,2.87,0,0,1,2.56,1.69l1.88,4.19a5.17,5.17,0,0,1-1.26,5.24l-2.92,2.92A3.73,3.73,0,0,1,117.86,358.75Z" transform="translate(-88.29 -320.25)"/><path class="cls-2" d="M117.52,338.25" transform="translate(-88.29 -320.25)"/></g><rect class="cls-2" x="118.72" y="341.75" width="1" height="2.36" transform="translate(-96.06 -317.45) rotate(-1.3)"/></g></g></g></svg>