<svg xmlns="http://www.w3.org/2000/svg" viewBox="0 0 48 48"><defs><style>.cls-1{fill:#f60;opacity:0;}.cls-2{fill:#8455bf;}</style></defs><g id="Letras"><g id="d"><rect class="cls-1" width="48" height="48"/><g id="D-2" data-name="D"><path class="cls-2" d="M60.81,364.16H49.11a7.56,7.56,0,0,1-5.49-2.72A6.12,6.12,0,0,1,42,356.59V338.64a5.19,5.19,0,0,1,.61-2.54c.71-1.26,1.81-1.53,3.26-.78l.12.08,6.24,6a3.56,3.56,0,0,1,1.07,2.3,2.85,2.85,0,0,1-.82,2.26,2.91,2.91,0,0,1-2.25.82,3.63,3.63,0,0,1-2.3-1.07l-1.51-1.49.7-.71L48.63,345a2.63,2.63,0,0,0,1.66.78,1.92,1.92,0,0,0,1.49-.53,1.9,1.9,0,0,0,.52-1.49,2.59,2.59,0,0,0-.77-1.65l-6.18-6c-1.18-.58-1.57-.11-1.86.42a4,4,0,0,0-.49,2.05v18a5.24,5.24,0,0,0,1.38,4.13,6.55,6.55,0,0,0,4.73,2.37h11.7A5.09,5.09,0,0,0,64,362l.37-.33,6.07-6.07a4.32,4.32,0,0,0,.06-6l-4.64-4.84a2.1,2.1,0,0,0-3-.06,2,2,0,0,0-.58,1.46,2.15,2.15,0,0,0,.65,1.5l2.92,2.93-2.76,2.83-.72-.7,2.07-2.13-2.22-2.22a3,3,0,1,1,4.31-4.31l4.65,4.85a5.34,5.34,0,0,1-.08,7.43l-6.51,6.46A6.13,6.13,0,0,1,60.81,364.16Z" transform="translate(-33.34 -319.84)"/><path class="cls-2" d="M67,344.57H66V326.91a2.08,2.08,0,1,0-4.1,0v11.35h-1V326.91a3.07,3.07,0,1,1,6.1,0Z" transform="translate(-33.34 -319.84)"/><g id="base"><path class="cls-2" d="M49.43,338.66" transform="translate(-33.34 -319.84)"/><path class="cls-2" d="M60.81,343.66" transform="translate(-33.34 -319.84)"/></g><path class="cls-2" d="M61.44,344.8h-.21a3.63,3.63,0,0,1-2.3-1.07l-.45-.38.65-.76.47.4a2.66,2.66,0,0,0,1.69.81,1.92,1.92,0,0,0,1.49-.53,1.9,1.9,0,0,0,.52-1.49,2.59,2.59,0,0,0-.77-1.65L56,333.58c-1.64-1.48-3.38-.39-4.55.79l-.71-.71c2.06-2.07,4.23-2.36,6-.8l6.56,6.56a3.56,3.56,0,0,1,1.07,2.3,2.82,2.82,0,0,1-2.86,3.08Z" transform="translate(-33.34 -319.84)"/><path class="cls-2" d="M54.5,338.66" transform="translate(-33.34 -319.84)"/><path class="cls-2" d="M56.44,345.8h-.21a3.63,3.63,0,0,1-2.3-1.07l-1.85-1.82.7-.72L54.63,344a2.63,2.63,0,0,0,1.66.78,1.92,1.92,0,0,0,1.49-.53,1.9,1.9,0,0,0,.52-1.49,2.59,2.59,0,0,0-.77-1.65L51,334.58a2.46,2.46,0,0,0-1.92-.7c-1.7.17-3.14,2.06-3.16,2.08l-.8-.6c.07-.09,1.73-2.27,3.86-2.47a3.42,3.42,0,0,1,2.71,1l6.56,6.56a3.56,3.56,0,0,1,1.07,2.3,2.82,2.82,0,0,1-2.86,3.08Z" transform="translate(-33.34 -319.84)"/><path class="cls-2" d="M49.5,339.66" transform="translate(-33.34 -319.84)"/></g></g></g></svg>