<svg xmlns="http://www.w3.org/2000/svg" viewBox="0 0 48 48"><defs><style>.cls-1{fill:#f60;opacity:0;}.cls-2{fill:#8455bf;}</style></defs><g id="Letras"><g id="s"><rect class="cls-1" width="48" height="48"/><g id="S-2" data-name="S"><path class="cls-2" d="M209.38,492.5" transform="translate(-196.1 -484.5)"/><path class="cls-2" d="M221.38,509a3.06,3.06,0,0,1-3-3.14V500.5h1v5.36a2.07,2.07,0,0,0,2,2.14Z" transform="translate(-196.1 -484.5)"/><path class="cls-2" d="M223.85,500.5" transform="translate(-196.1 -484.5)"/><path class="cls-2" d="M224.35,504.5h-1v-6.36a2,2,0,1,0-3.95,0v5.36h-1v-5.36a3,3,0,1,1,5.95,0Z" transform="translate(-196.1 -484.5)"/><path class="cls-2" d="M221.38,502.5" transform="translate(-196.1 -484.5)"/><path class="cls-2" d="M223.9,500.5" transform="translate(-196.1 -484.5)"/><path class="cls-2" d="M228.85,505.86" transform="translate(-196.1 -484.5)"/><path class="cls-2" d="M228.85,503.71" transform="translate(-196.1 -484.5)"/><rect class="cls-2" x="32.25" y="16" width="1" height="8.21"/><path class="cls-2" d="M224.4,504.5h-1v-6.36a3,3,0,1,1,5.95,0v5.36h-1v-5.36a2,2,0,1,0-3.95,0Z" transform="translate(-196.1 -484.5)"/><path class="cls-2" d="M226.38,502.5" transform="translate(-196.1 -484.5)"/><path class="cls-2" d="M216.38,509a3.06,3.06,0,0,1-3-3.14V500.5h1v5.36a2,2,0,1,0,3.95,0V500.5h1v5.36A3.06,3.06,0,0,1,216.38,509Z" transform="translate(-196.1 -484.5)"/><path class="cls-2" d="M219.35,503.5h-1v-5.36a2,2,0,1,0-3.95,0v5.36h-1v-5.36a3,3,0,1,1,5.95,0Z" transform="translate(-196.1 -484.5)"/><path class="cls-2" d="M216.38,502.5" transform="translate(-196.1 -484.5)"/><path class="cls-2" d="M211.38,509a3.06,3.06,0,0,1-3-3.14V500.5h1v5.36a2,2,0,1,0,3.95,0V500.5h1v5.36A3.06,3.06,0,0,1,211.38,509Z" transform="translate(-196.1 -484.5)"/><path class="cls-2" d="M214.35,505.5h-1v-5.36a2,2,0,1,0-3.95,0v5.36h-1v-5.36a3,3,0,1,1,5.95,0Z" transform="translate(-196.1 -484.5)"/><path class="cls-2" d="M211.38,502.5" transform="translate(-196.1 -484.5)"/><path class="cls-2" d="M226.8,524.5H213a6.19,6.19,0,0,1-6.12-7.11l1.51-11.46,1,.14-1.52,11.46a5.17,5.17,0,0,0,5.13,6H226.8a4.79,4.79,0,0,0,4.73-4.13l.69-4.45a2.43,2.43,0,0,0-.54-2.59l-7-7a2.07,2.07,0,1,0-2.84,2.95l2.8,2.77-.7.71-2.8-2.76a3.07,3.07,0,1,1,4.24-4.38l7,7a3.39,3.39,0,0,1,.8,3.54l-.67,4.36A5.8,5.8,0,0,1,226.8,524.5Z" transform="translate(-196.1 -484.5)"/><path class="cls-2" d="M211.38,503" transform="translate(-196.1 -484.5)"/><path class="cls-2" d="M221.65,517.73c-.9-6.56,4.34-7.75,4.39-7.77l.21,1c-.18,0-4.38,1-3.61,6.65Z" transform="translate(-196.1 -484.5)"/></g></g></g></svg>