<svg xmlns="http://www.w3.org/2000/svg" viewBox="0 0 48 48"><defs><style>.cls-1{fill:#f60;opacity:0;}.cls-2{fill:#8455bf;}</style></defs><g id="Letras"><g id="h"><rect class="cls-1" width="48" height="48"/><g id="H-2" data-name="H"><path class="cls-2" d="M46.1,401.29a3,3,0,0,1-3-2.94v-5h1v5a2,2,0,0,0,4,0v-5h1v5A3,3,0,0,1,46.1,401.29Z" transform="translate(-33.37 -374.21)"/><path class="cls-2" d="M49.08,398.17h-1v-4.94a2,2,0,0,0-4,0v4.94h-1v-4.94a3,3,0,0,1,6,0Z" transform="translate(-33.37 -374.21)"/><path class="cls-2" d="M46.1,396.25" transform="translate(-33.37 -374.21)"/><path class="cls-2" d="M63.77,396.8l-1,0L63,384.52a2.07,2.07,0,1,0-4.09,0v11.76h-1V384.53a3.06,3.06,0,1,1,6.09,0Z" transform="translate(-33.37 -374.21)"/><path class="cls-2" d="M58.62,396.29h-1l.1-14.26a2.08,2.08,0,1,0-4.1,0v7.82h-1V382a3.07,3.07,0,1,1,6.1,0Z" transform="translate(-33.37 -374.21)"/><path class="cls-2" d="M56.1,395.79" transform="translate(-33.37 -374.21)"/><path class="cls-2" d="M51.1,402.29a3.07,3.07,0,0,1-3-3.14v-5.36h1v5.36a2,2,0,1,0,4,0v-5.36h1v5.36A3.07,3.07,0,0,1,51.1,402.29Z" transform="translate(-33.37 -374.21)"/><path class="cls-2" d="M54.08,396.79h-1v-5.36a2,2,0,1,0-4,0v5.36h-1v-5.36a3,3,0,1,1,6,0Z" transform="translate(-33.37 -374.21)"/><path class="cls-2" d="M51.1,395.79" transform="translate(-33.37 -374.21)"/><path class="cls-2" d="M56.19,408.43l-.91-.42c2.78-6,7.83-4.2,7.88-4.18l-.35.94C62.64,404.71,58.57,403.29,56.19,408.43Z" transform="translate(-33.37 -374.21)"/><path class="cls-2" d="M58.13,417.79H47.73a6.19,6.19,0,0,1-6.12-7.11l1.52-15.81,1,.1L42.6,410.8a5.2,5.2,0,0,0,5.13,6h10.4a6.13,6.13,0,0,0,4.6-2.08l3-3.38a2.44,2.44,0,0,0,.94-2.47l-2.15-9.63a2.57,2.57,0,0,0-1-1.52,1.85,1.85,0,0,0-1.54-.33,1.89,1.89,0,0,0-1.23,1,2.63,2.63,0,0,0-.2,1.82l.87,3.84-1,.22-.87-3.83a3.55,3.55,0,0,1,.29-2.51,2.83,2.83,0,0,1,4.23-1,3.62,3.62,0,0,1,1.4,2.11l2.15,9.64a3.4,3.4,0,0,1-1.23,3.42l-2.91,3.31A7.11,7.11,0,0,1,58.13,417.79Z" transform="translate(-33.37 -374.21)"/><path class="cls-2" d="M49.41,387.67c-5.49,0-9.79-1.88-9.79-4.29s4.3-4.28,9.79-4.28v1c-5.18,0-8.79,1.73-8.79,3.28s3.61,3.29,8.79,3.29Z" transform="translate(-33.37 -374.21)"/><path class="cls-2" d="M65.34,387.67v-1c5.18,0,8.78-1.73,8.78-3.29s-3.6-3.28-8.78-3.28v-1c5.48,0,9.78,1.88,9.78,4.28S70.82,387.67,65.34,387.67Z" transform="translate(-33.37 -374.21)"/><polygon class="cls-2" points="33.54 4.58 33.51 5.41 33.49 6.24 31.73 5.82 29.98 5.39 31.76 4.98 33.54 4.58"/><polygon class="cls-2" points="14.89 12.06 16.69 12.42 18.48 12.78 16.54 13.39 14.6 14 14.74 13.03 14.89 12.06"/></g></g></g></svg>