<svg xmlns="http://www.w3.org/2000/svg" viewBox="0 0 48 48"><defs><style>.cls-1{fill:#f60;opacity:0;}.cls-2{fill:#8455bf;}</style></defs><g id="Letras"><g id="c"><rect class="cls-1" width="48" height="48"/><g id="C-2" data-name="C"><path class="cls-2" d="M156.7,306a5.59,5.59,0,0,1-5.54-5l-.27-2.17a5.75,5.75,0,0,1,.24-2.47l2.52-7.72c4.15-10.93,17.63-7.39,17.76-7.35l3.7,1.51a2.31,2.31,0,0,1,1.37,1.45,2,2,0,0,1-.28,1.72,2.69,2.69,0,0,1-3,.95l-.93-.28a9.41,9.41,0,0,0-7.81,1.07,6,6,0,0,0-2.83,4.43,5.25,5.25,0,0,0,0,.56,6.33,6.33,0,0,0,10.34,4.8l3.5-3a3.3,3.3,0,0,1,4.15.07,2.39,2.39,0,0,1-.09,3.73l-5.16,4.54a11.86,11.86,0,0,1-7.75,2.8l-9.7.33Zm9.57-24.3c-4,0-9.37,1.23-11.68,7.31l-2.51,7.7a4.7,4.7,0,0,0-.19,2h0l.26,2.16a4.62,4.62,0,0,0,4.72,4.09l9.72-.34a10.86,10.86,0,0,0,7.1-2.55l5.17-4.55a1.48,1.48,0,0,0,.59-1.11,1.43,1.43,0,0,0-.52-1.11,2.24,2.24,0,0,0-2.84,0l-3.48,3a7.33,7.33,0,0,1-12-5.55c0-.22,0-.43,0-.65a7,7,0,0,1,3.28-5.17,10.41,10.41,0,0,1,8.65-1.2l.94.29a1.73,1.73,0,0,0,1.87-.56,1,1,0,0,0,.14-.87,1.29,1.29,0,0,0-.79-.81l-3.64-1.49A20,20,0,0,0,166.27,281.7Z" transform="translate(-141.65 -266)"/><path class="cls-2" d="M175.61,286.54v-1a4.35,4.35,0,0,0,1.37-.18,1.14,1.14,0,0,0,.55-.78,1.3,1.3,0,0,0-.22-1l-.16-.21a13.56,13.56,0,0,0-9.25-5.57,11,11,0,0,0-7.2,1.59c-1.13.7-2.5,3.15-2.92,4.79l-1-.25c.48-1.86,2-4.54,3.36-5.39A11.89,11.89,0,0,1,168,276.8a14.58,14.58,0,0,1,9.95,6l.15.21a2.26,2.26,0,0,1,.4,1.79,2.16,2.16,0,0,1-1,1.45A5.08,5.08,0,0,1,175.61,286.54Z" transform="translate(-141.65 -266)"/><path class="cls-2" d="M178.37,285l-.19-1h.08a.86.86,0,0,0,.54-.43,1,1,0,0,0,0-.82l-.08-.21a12.36,12.36,0,0,0-6.46-6.76,9.34,9.34,0,0,0-6.19-.48,11.15,11.15,0,0,0-3.05,2.95l-.78-.63c.9-1.11,2.56-3,3.57-3.29a10.31,10.31,0,0,1,6.84.53,13.36,13.36,0,0,1,7,7.31l.08.2a2,2,0,0,1-.05,1.65,1.84,1.84,0,0,1-1.19.95Z" transform="translate(-141.65 -266)"/></g></g></g></svg>