<svg xmlns="http://www.w3.org/2000/svg" viewBox="0 0 48 48"><defs><style>.cls-1{fill:#f60;opacity:0;}.cls-2{fill:#8455bf;}</style></defs><g id="Letras"><g id="r"><rect class="cls-1" width="48" height="48"/><g id="R-2" data-name="R"><path class="cls-2" d="M158.6,510.4a3,3,0,0,1-3-2.93v-5h1v5a2,2,0,0,0,4,0v-5h1v5A3,3,0,0,1,158.6,510.4Z" transform="translate(-142.88 -483.6)"/><path class="cls-2" d="M161.58,507.29h-1v-5a2,2,0,0,0-4,0v5h-1v-5a3,3,0,0,1,6,0Z" transform="translate(-142.88 -483.6)"/><path class="cls-2" d="M158.6,505.37" transform="translate(-142.88 -483.6)"/><path class="cls-2" d="M177.63,512.94l-.38-6.84a7.17,7.17,0,0,0-.87-2.92l-6.56-11.94a2.55,2.55,0,0,0-1.4-1.15,1.9,1.9,0,0,0-1.57.14,2.24,2.24,0,0,0-.55,3.1l2,3.37,4.11,7.7h-4.8v-1h3.14l-3.33-6.21-2-3.35a3.23,3.23,0,0,1,.9-4.47,2.88,2.88,0,0,1,2.39-.23,3.6,3.6,0,0,1,2,1.61l6.57,11.95a8.14,8.14,0,0,1,1,3.33l.38,6.85Z" transform="translate(-142.88 -483.6)"/><rect class="cls-2" x="164.92" y="497.64" width="3.85" height="1" transform="translate(-499.49 -29.81) rotate(-66.64)"/><path class="cls-2" d="M173.61,496.69l-.92-.39,1.65-3.83a2.26,2.26,0,0,0-.9-3,1.94,1.94,0,0,0-1.58,0,2.6,2.6,0,0,0-1.26,1.33l-.11.25-.92-.41.11-.25a3.59,3.59,0,0,1,1.76-1.82,2.84,2.84,0,0,1,2.4-.05,3.23,3.23,0,0,1,1.41,4.34Z" transform="translate(-142.88 -483.6)"/><path class="cls-2" d="M168.6,504.9" transform="translate(-142.88 -483.6)"/><path class="cls-2" d="M163.6,511.4a3.07,3.07,0,0,1-3-3.14V502.9h1v5.36a2,2,0,1,0,4,0V502.9h1v5.36A3.07,3.07,0,0,1,163.6,511.4Z" transform="translate(-142.88 -483.6)"/><path class="cls-2" d="M166.58,505.9h-1v-5.35a2,2,0,1,0-4,0v5.35h-1v-5.35a3,3,0,1,1,6,0Z" transform="translate(-142.88 -483.6)"/><path class="cls-2" d="M163.6,504.9" transform="translate(-142.88 -483.6)"/><path class="cls-2" d="M168.33,519.47c-1.46-6.45,3.65-8.1,3.7-8.12l.3,1c-.18.05-4.28,1.41-3,6.94Z" transform="translate(-142.88 -483.6)"/><path class="cls-2" d="M160.23,526.9a6.19,6.19,0,0,1-6.12-7.11l1.52-15.8,1,.09-1.52,15.84a5.19,5.19,0,0,0,5.13,6h10.4l3.54-.06a4,4,0,0,0,3.91-3.55l.24-2.07.3-4.47a2.47,2.47,0,0,0-.76-2.53l-7.58-6.33a2.47,2.47,0,0,0-1.72-.59,1.82,1.82,0,0,0-1.79,2.21,2.59,2.59,0,0,0,.94,1.56l3,2.52-.63.77-3-2.51a3.63,3.63,0,0,1-1.3-2.17,2.84,2.84,0,0,1,2.74-3.38,3.54,3.54,0,0,1,2.39.81l7.59,6.34a3.39,3.39,0,0,1,1.1,3.46l-.29,4.4-.24,2.1a5,5,0,0,1-4.88,4.43l-3.56.06Z" transform="translate(-142.88 -483.6)"/><path class="cls-2" d="M167.91,503.6" transform="translate(-142.88 -483.6)"/></g></g></g></svg>