<svg xmlns="http://www.w3.org/2000/svg" viewBox="0 0 48 48"><defs><style>.cls-1{fill:#f60;opacity:0;}.cls-2{fill:#8455bf;}</style></defs><g id="Letras"><g id="j"><rect class="cls-1" width="48" height="48"/><g id="J-2" data-name="J"><g id="I"><path class="cls-2" d="M167.8,396.89h-.1a3.23,3.23,0,0,1-2.17-1l-3.79-3.79.71-.7,3.79,3.79a2.22,2.22,0,0,0,1.49.66,2,2,0,0,0,1.42-.55,1.87,1.87,0,0,0,.54-1.41,2.18,2.18,0,0,0-.66-1.5l-3.79-3.79.71-.71,3.79,3.79a3.18,3.18,0,0,1,.95,2.17,2.86,2.86,0,0,1-2.89,3Z" transform="translate(-142.42 -374.26)"/><path class="cls-2" d="M163.86,394.27l-3.79-3.79a3,3,0,1,1,4.21-4.21l3.79,3.79-.7.7L163.58,387a2,2,0,1,0-2.8,2.8l3.79,3.79Z" transform="translate(-142.42 -374.26)"/><path class="cls-2" d="M165.26,391.45" transform="translate(-142.42 -374.26)"/><path class="cls-2" d="M171.33,393.36a3.26,3.26,0,0,1-2.27-1l-3.78-3.79.7-.71,3.79,3.79a2.14,2.14,0,0,0,2.42.47l.44.9A3,3,0,0,1,171.33,393.36Z" transform="translate(-142.42 -374.26)"/><path class="cls-2" d="M172.92,388.54" transform="translate(-142.42 -374.26)"/><path class="cls-2" d="M171.4,387" transform="translate(-142.42 -374.26)"/><rect class="cls-2" x="169.77" y="384.28" width="1" height="3.21" transform="translate(-365.43 -140.8) rotate(-45.01)"/><path class="cls-2" d="M167.4,390.73l-3.79-3.79a3.05,3.05,0,0,1-.12-4.32,2.85,2.85,0,0,1,2.16-.84,3.18,3.18,0,0,1,2.17,1l3.79,3.79-.71.71-3.79-3.79a2.17,2.17,0,0,0-1.49-.66,1.84,1.84,0,0,0-1.42.54,2.06,2.06,0,0,0,.12,2.91L168.1,390Z" transform="translate(-142.42 -374.26)"/><path class="cls-2" d="M168.8,387.92" transform="translate(-142.42 -374.26)"/><path class="cls-2" d="M164.26,400.42a3.24,3.24,0,0,1-2.27-.95l-3.79-3.79.71-.71,3.79,3.79a2,2,0,1,0,2.8-2.79l-3.79-3.79.71-.71,3.78,3.79a3.07,3.07,0,0,1,.12,4.33A2.88,2.88,0,0,1,164.26,400.42Z" transform="translate(-142.42 -374.26)"/><path class="cls-2" d="M160.33,397.8,156.54,394a3.23,3.23,0,0,1-1-2.17,2.88,2.88,0,0,1,3-3,3.18,3.18,0,0,1,2.17.95l3.79,3.79-.71.71L160,390.51a2.22,2.22,0,0,0-1.5-.66,1.91,1.91,0,0,0-1.41.54,1.94,1.94,0,0,0-.55,1.42,2.27,2.27,0,0,0,.66,1.5L161,397.1Z" transform="translate(-142.42 -374.26)"/><path class="cls-2" d="M161.72,395" transform="translate(-142.42 -374.26)"/><path class="cls-2" d="M170.52,414.74a3.54,3.54,0,0,1-.46,0,6.17,6.17,0,0,1-4.52-2.49l-7-9.17-9-9.05a3.23,3.23,0,0,1-1-2.17,2.88,2.88,0,0,1,.84-2.15,2.85,2.85,0,0,1,2.16-.84,3.18,3.18,0,0,1,2.17.95l3.79,3.79-.71.71L153,390.51a2.22,2.22,0,0,0-1.5-.66,1.82,1.82,0,0,0-1.41.54,1.9,1.9,0,0,0-.55,1.42,2.22,2.22,0,0,0,.66,1.5l9.1,9.09,7.07,9.23a5.18,5.18,0,0,0,7.85.59l7.35-7.35a6.13,6.13,0,0,0,1.79-4.73l-.29-4.49a2.45,2.45,0,0,0-1.08-2.41L173.63,388a2.56,2.56,0,0,0-1.79-.36,1.87,1.87,0,0,0-1.32.85,2.25,2.25,0,0,0,1,3l1.18.75-.54.84-1.17-.74a3.24,3.24,0,0,1-1.3-4.37,2.88,2.88,0,0,1,2-1.32,3.59,3.59,0,0,1,2.48.5l8.35,5.3a3.39,3.39,0,0,1,1.54,3.29l.28,4.39a7.13,7.13,0,0,1-2.07,5.5l-7.35,7.35A6.22,6.22,0,0,1,170.52,414.74Z" transform="translate(-142.42 -374.26)"/><path class="cls-2" d="M149.7,392.87" transform="translate(-142.42 -374.26)"/><path class="cls-2" d="M158.52,398.85" transform="translate(-142.42 -374.26)"/><path class="cls-2" d="M173.32,400.68c-2.28-6.21,2.57-8.51,2.62-8.53l.42.91c-.17.08-4.05,1.95-2.1,7.27Z" transform="translate(-142.42 -374.26)"/><rect class="cls-2" x="172.99" y="392.02" width="1" height="2.54" transform="translate(-394.2 -43.64) rotate(-57.81)"/></g><path class="cls-2" d="M159.27,410.11H156a4.43,4.43,0,0,1-4.42-4.42v-4.08h1v4.08a3.42,3.42,0,0,0,3.42,3.42h3.28Z" transform="translate(-142.42 -374.26)"/><polyline class="cls-2" points="16.09 33.79 17.65 35.35 16.09 36.91"/></g></g></g></svg>