<svg xmlns="http://www.w3.org/2000/svg" viewBox="0 0 48 48"><defs><style>.cls-1{fill:#f60;opacity:0;}.cls-2{fill:#8455bf;}</style></defs><g id="Letras"><g id="t"><rect class="cls-1" width="48" height="48"/><g id="T-2" data-name="T"><g id="A"><path class="cls-2" d="M50,558.38" transform="translate(-32.45 -541.13)"/><path class="cls-2" d="M61.36,563.38" transform="translate(-32.45 -541.13)"/></g><path class="cls-2" d="M55.74,563.11h-1V549.52a3,3,0,1,1,6.09,0v9.36h-1v-9.36a2,2,0,1,0-4.09,0Z" transform="translate(-32.45 -541.13)"/><path class="cls-2" d="M55.74,563h-1v-13.5a2.05,2.05,0,1,0-4.1,0v13.36h-1V549.52a3.05,3.05,0,1,1,6.1,0Z" transform="translate(-32.45 -541.13)"/><path class="cls-2" d="M62.25,572.13l-1-.29,1-3.26-5-4.82a3.24,3.24,0,0,1-.32-4.55,3.15,3.15,0,0,1,4-.26l-.55.83a2.15,2.15,0,0,0-2.74.13,2.25,2.25,0,0,0,.3,3.14l5.4,5.24Z" transform="translate(-32.45 -541.13)"/><path class="cls-2" d="M49.66,583.88a6.2,6.2,0,0,1-6.12-7.12l1-15.92v-3.67a3.06,3.06,0,1,1,6.09,0v5.28h-1v-5.28a2.07,2.07,0,1,0-4.09,0v3.71l-1,16a5.21,5.21,0,0,0,5.13,6h11.7c2.36-.36,4.29-2,5.68-4.88a13.58,13.58,0,0,0,.29-11.32l-2.91-2.95.71-.71,3.08,3.18a14.63,14.63,0,0,1-.27,12.24c-1.52,3.14-3.77,5-6.5,5.43Z" transform="translate(-32.45 -541.13)"/><path class="cls-2" d="M63,564.38a3.07,3.07,0,0,1-3-3.15v-5.35h1v5.35a2,2,0,1,0,4,0v-5.35h1v5.35A3.07,3.07,0,0,1,63,564.38Z" transform="translate(-32.45 -541.13)"/><path class="cls-2" d="M66,560.88H65v-5.36a2,2,0,1,0-4,0v5.36h-1v-5.36a3,3,0,1,1,6,0Z" transform="translate(-32.45 -541.13)"/><path class="cls-2" d="M63,557.87" transform="translate(-32.45 -541.13)"/></g></g></g></svg>