<svg xmlns="http://www.w3.org/2000/svg" viewBox="0 0 48 48"><defs><style>.cls-1{fill:#f60;opacity:0;}.cls-2{fill:#8455bf;}</style></defs><g id="Letras"><g id="v"><rect class="cls-1" width="48" height="48"/><g id="V-2" data-name="V"><path class="cls-2" d="M157.5,562.12" transform="translate(-142.98 -540.34)"/><path class="cls-2" d="M175,569l-.11-5.59,4.93-12.81a2.07,2.07,0,1,0-3.84-1.42l-1.35,3.66-3.75,9.8a.63.63,0,0,1-.67.39.62.62,0,0,1-.52-.57l-1.09-14.69a2.07,2.07,0,1,0-4.07.36l.72,8.5-1,.09-.73-8.51a3.06,3.06,0,1,1,6.07-.52l1,13,4.49-11.84a3.06,3.06,0,1,1,5.71,2.11l-4.86,12.63.1,5.4Z" transform="translate(-142.98 -540.34)"/><path class="cls-2" d="M167.5,561.66" transform="translate(-142.98 -540.34)"/><path class="cls-2" d="M162.5,561.66" transform="translate(-142.98 -540.34)"/><path class="cls-2" d="M157.5,567.66a3,3,0,0,1-3-2.94v-5h1v5a2,2,0,0,0,4,0v-5h1v5A3,3,0,0,1,157.5,567.66Z" transform="translate(-142.98 -540.34)"/><path class="cls-2" d="M160.48,564.54h-1V559.6a2,2,0,0,0-4,0v4.94h-1V559.6a3,3,0,0,1,6,0Z" transform="translate(-142.98 -540.34)"/><path class="cls-2" d="M157.5,562.62" transform="translate(-142.98 -540.34)"/><path class="cls-2" d="M167.5,562.16" transform="translate(-142.98 -540.34)"/><path class="cls-2" d="M162.5,568.66a3.07,3.07,0,0,1-3-3.14v-5.36h1v5.36a2,2,0,1,0,4,0v-5.36h1v5.36A3.07,3.07,0,0,1,162.5,568.66Z" transform="translate(-142.98 -540.34)"/><path class="cls-2" d="M165.48,563.16h-1V557.8a2,2,0,1,0-4,0v5.36h-1V557.8a3,3,0,1,1,6,0Z" transform="translate(-142.98 -540.34)"/><path class="cls-2" d="M162.5,562.16" transform="translate(-142.98 -540.34)"/><path class="cls-2" d="M167.23,576.72c-1.46-6.45,3.65-8.1,3.7-8.11l.29.95c-.17.06-4.27,1.42-3,6.94Z" transform="translate(-142.98 -540.34)"/><path class="cls-2" d="M159.13,584.16a6.19,6.19,0,0,1-6.12-7.11l1.52-15.81,1,.1L154,577.17a5.2,5.2,0,0,0,5.13,6h10.4l3.54-.06a4,4,0,0,0,3.91-3.55l.24-2.08.3-4.47a2.47,2.47,0,0,0-.76-2.53l-7.58-6.33a2.52,2.52,0,0,0-1.72-.59,1.89,1.89,0,0,0-1.43.68,1.92,1.92,0,0,0-.36,1.54,2.62,2.62,0,0,0,.94,1.56l3,2.51-.63.77-3-2.51a3.63,3.63,0,0,1-1.3-2.17,2.84,2.84,0,0,1,2.74-3.38,3.6,3.6,0,0,1,2.39.82l7.59,6.33a3.41,3.41,0,0,1,1.1,3.46l-.29,4.4-.24,2.1a5,5,0,0,1-4.88,4.44l-3.56.06Z" transform="translate(-142.98 -540.34)"/><path class="cls-2" d="M166.81,560.85" transform="translate(-142.98 -540.34)"/></g></g></g></svg>