<svg xmlns="http://www.w3.org/2000/svg" viewBox="0 0 48 48"><defs><style>.cls-1{fill:#f60;opacity:0;}.cls-2{fill:#8455bf;}</style></defs><g id="Letras"><g id="u"><rect class="cls-1" width="48" height="48"/><g id="U-2" data-name="U"><g id="U-3" data-name="U"><path class="cls-2" d="M103.6,563.13" transform="translate(-87.88 -541.34)"/><path class="cls-2" d="M121.27,569.15h-1l.22-17.74a2.07,2.07,0,1,0-4.09,0v11.75h-1V551.41a3.06,3.06,0,1,1,6.09,0Z" transform="translate(-87.88 -541.34)"/><path class="cls-2" d="M116.12,563.17h-1l.09-14.26a2.07,2.07,0,1,0-4.09,0v8.53h-1v-8.53a3.06,3.06,0,1,1,6.09,0Z" transform="translate(-87.88 -541.34)"/><path class="cls-2" d="M113.6,562.66" transform="translate(-87.88 -541.34)"/><path class="cls-2" d="M108.6,562.66" transform="translate(-87.88 -541.34)"/></g><path class="cls-2" d="M103.6,568.66a3,3,0,0,1-3-2.93v-5h1v5a2,2,0,0,0,4,0v-5h1v5A3,3,0,0,1,103.6,568.66Z" transform="translate(-87.88 -541.34)"/><path class="cls-2" d="M106.58,565.55h-1V560.6a2,2,0,0,0-4,0v4.95h-1V560.6a3,3,0,0,1,6,0Z" transform="translate(-87.88 -541.34)"/><path class="cls-2" d="M103.6,563.63" transform="translate(-87.88 -541.34)"/><path class="cls-2" d="M113.6,563.16" transform="translate(-87.88 -541.34)"/><path class="cls-2" d="M108.6,569.66a3.07,3.07,0,0,1-3-3.14v-5.36h1v5.36a2,2,0,1,0,4,0v-5.36h1v5.36A3.07,3.07,0,0,1,108.6,569.66Z" transform="translate(-87.88 -541.34)"/><path class="cls-2" d="M111.58,564.16h-1v-5.35a2,2,0,1,0-4,0v5.35h-1v-5.35a3,3,0,1,1,6,0Z" transform="translate(-87.88 -541.34)"/><path class="cls-2" d="M108.6,563.16" transform="translate(-87.88 -541.34)"/><path class="cls-2" d="M113.33,577.73c-1.46-6.45,3.65-8.1,3.7-8.12l.3,1c-.18,0-4.28,1.41-3,6.94Z" transform="translate(-87.88 -541.34)"/><path class="cls-2" d="M105.23,585.16a6.19,6.19,0,0,1-6.12-7.11l1.52-15.8,1,.09-1.52,15.84a5.19,5.19,0,0,0,5.13,6h10.4l3.54-.06a4,4,0,0,0,3.91-3.55l.24-2.07.3-4.47a2.46,2.46,0,0,0-.76-2.53l-7.58-6.33a2.47,2.47,0,0,0-1.72-.59,1.82,1.82,0,0,0-1.79,2.21,2.59,2.59,0,0,0,.94,1.56l3,2.52-.63.76-3-2.5a3.63,3.63,0,0,1-1.3-2.17,2.84,2.84,0,0,1,2.74-3.38,3.59,3.59,0,0,1,2.39.81l7.59,6.34a3.39,3.39,0,0,1,1.1,3.46l-.29,4.39-.24,2.11a5,5,0,0,1-4.88,4.43l-3.56.06Z" transform="translate(-87.88 -541.34)"/><path class="cls-2" d="M112.91,561.86" transform="translate(-87.88 -541.34)"/></g></g></g></svg>