<svg xmlns="http://www.w3.org/2000/svg" viewBox="0 0 48 48"><defs><style>.cls-1{fill:#f60;opacity:0;}.cls-2{fill:#8455bf;}</style></defs><g id="Letras"><g id="n"><rect class="cls-1" width="48" height="48"/><g id="N-2" data-name="N"><g id="base"><path class="cls-2" d="M174.53,458.84" transform="translate(-142.98 -428.66)"/><path class="cls-2" d="M163.15,453.84" transform="translate(-142.98 -428.66)"/></g><path class="cls-2" d="M162.16,462a3.15,3.15,0,0,1-1.51-.39,3,3,0,0,1-1.64-2.63h1a2,2,0,0,0,1.1,1.76,2.79,2.79,0,0,0,3.16-.68l.67.74A4.17,4.17,0,0,1,162.16,462Z" transform="translate(-142.98 -428.66)"/><path class="cls-2" d="M167,472a3.24,3.24,0,0,1-3.05-3.4l.1-12.26h1l-.1,12.26a2.07,2.07,0,1,0,4.1,0V456.34h1v12.25A3.24,3.24,0,0,1,167,472Z" transform="translate(-142.98 -428.66)"/><path class="cls-2" d="M172,470a3.24,3.24,0,0,1-3.05-3.4l.1-10.26h1l-.1,10.26a2.07,2.07,0,1,0,4.1,0V456.13l.34-.12A5.13,5.13,0,0,0,177,453.7l1-13.36a5.19,5.19,0,0,0-5.13-6h-11.7a5.19,5.19,0,0,0-5.19,5.19v8.62q0,1.07,0,2l.08,6.79a1.82,1.82,0,0,0,.77,1.54,2.12,2.12,0,0,0,2.23.1v-2.05h1v2.58l-.2.15a3.15,3.15,0,0,1-3.58.07,2.82,2.82,0,0,1-1.23-2.37l-.08-6.81c0-.61,0-1.27,0-2v-8.62a6.19,6.19,0,0,1,6.19-6.19h11.7a6.19,6.19,0,0,1,6.12,7.11l-1,13.61a6,6,0,0,1-2.93,2.76v9.77A3.24,3.24,0,0,1,172,470Z" transform="translate(-142.98 -428.66)"/></g></g></g></svg>