<svg xmlns="http://www.w3.org/2000/svg" viewBox="0 0 48 48"><defs><style>.cls-1{fill:#f60;opacity:0;}.cls-2{fill:#8455bf;}</style></defs><g id="Letras"><g id="b"><rect class="cls-1" width="48" height="48"/><g id="B-2" data-name="B"><g id="A"><path class="cls-2" d="M105.56,282.87" transform="translate(-87.86 -265.63)"/><path class="cls-2" d="M117,287.88" transform="translate(-87.86 -265.63)"/></g><path class="cls-2" d="M121.14,293.89l-1,0,.36-16.75a2.07,2.07,0,1,0-4.09,0v9.26h-1v-9.26a3.06,3.06,0,1,1,6.09,0Z" transform="translate(-87.86 -265.63)"/><rect class="cls-2" x="27.55" y="20.75" width="1" height="0.6"/><path class="cls-2" d="M116.41,286.38h-1V274a2,2,0,1,0-4.09,0v12.36h-1V274a3,3,0,1,1,6.09,0Z" transform="translate(-87.86 -265.63)"/><path class="cls-2" d="M111.32,286.38h-1V274a2,2,0,1,0-4.09,0v12.36h-1V274a3,3,0,1,1,6.09,0Z" transform="translate(-87.86 -265.63)"/><path class="cls-2" d="M117.94,288.34c-.07,0-7-2.88-13.52,0l-.4-.91c7-3.06,14-.13,14.31,0Z" transform="translate(-87.86 -265.63)"/><path class="cls-2" d="M112.87,302.11c-.77-6.56,4.48-7.66,4.53-7.67l.2,1c-.18,0-4.4.95-3.74,6.58Z" transform="translate(-87.86 -265.63)"/><path class="cls-2" d="M117,308.38h-11.7a6.2,6.2,0,0,1-6.13-7.11l1-15.93v-3.67a3.06,3.06,0,1,1,6.09,0v5.54h-1v-5.54a2.07,2.07,0,1,0-4.09,0v3.71l-1,16a5.2,5.2,0,0,0,5.13,6H117a5.18,5.18,0,0,0,4.59-2.78l2-5.19a2.42,2.42,0,0,0-.52-2.51l-6.87-7.09a2.55,2.55,0,0,0-1.65-.77,1.84,1.84,0,0,0-2,2,2.61,2.61,0,0,0,.78,1.66l2.75,2.82-.72.69-2.74-2.81a3.61,3.61,0,0,1-1.07-2.29,2.84,2.84,0,0,1,3.08-3.08,3.66,3.66,0,0,1,2.3,1.07l6.87,7.1a3.39,3.39,0,0,1,.73,3.56l-2,5.24A6.19,6.19,0,0,1,117,308.38Z" transform="translate(-87.86 -265.63)"/></g></g></g></svg>