<svg width="356" height="122" viewBox="0 0 356 122" fill="none" xmlns="http://www.w3.org/2000/svg">
<path fill-rule="evenodd" clip-rule="evenodd" d="M63.8849 0C81.6633 4.12465 96.7432 10.4869 103.5 15.5C155.784 54.2915 171.069 41.6434 192.665 23.7722C195.917 21.0807 199.313 18.2706 203 15.5C211.697 8.79811 222.553 3.75523 234.517 0H344C350.627 0 356 5.37258 356 12V110C356 116.627 350.627 122 344 122H269.395C252.205 118.213 241.724 113.244 232.695 108.963L232.695 108.963C229.701 107.544 226.866 106.2 224 105C190.705 93.0481 157.289 102.596 141.173 107.201C138.412 107.99 136.158 108.634 134.5 109C108.9 117.828 76.6939 120.314 51.2848 122H12C5.37258 122 0 116.627 0 110V12C0 5.37258 5.37258 0 12 0H63.8849ZM256 32C256 39.1797 250.18 45 243 45C235.82 45 230 39.1797 230 32C230 24.8203 235.82 19 243 19C250.18 19 256 24.8203 256 32ZM212.5 61C215.538 61 218 58.5376 218 55.5C218 52.4624 215.538 50 212.5 50C209.462 50 207 52.4624 207 55.5C207 58.5376 209.462 61 212.5 61Z" fill="white" fill-opacity="0.12"/>
</svg>
