<svg width="17" height="17" viewBox="0 0 17 17" fill="none" xmlns="http://www.w3.org/2000/svg">
<path fill-rule="evenodd" clip-rule="evenodd" d="M8.5 17C13.1944 17 17 13.1944 17 8.5C17 3.80557 13.1944 0 8.5 0C3.80557 0 0 3.80557 0 8.5C0 13.1944 3.80557 17 8.5 17ZM8.21231 2.93933C7.62653 2.35355 6.67679 2.35355 6.091 2.93933C5.5052 3.52512 5.5052 4.47488 6.091 5.06067L9.18199 8.15164L6.091 11.2426C5.5052 11.8284 5.5052 12.7782 6.091 13.364C6.67679 13.9497 7.62653 13.9497 8.21231 13.364L12.364 9.21231L13.4246 8.15164L12.364 7.091L8.21231 2.93933Z" fill="white"/>
</svg>
