<svg width="132" height="132" viewBox="0 0 132 132" fill="none" xmlns="http://www.w3.org/2000/svg">
<path d="M37.7459 117.773C38.8827 115.531 39.3963 114.499 39.2868 114.677C42.4866 108.049 44.9317 102.691 46.6222 98.6025C48.3653 94.4902 49.5745 90.4637 50.2498 86.523C50.9251 82.5823 50.6108 79.1915 49.3067 76.3505C48.3166 74.1934 47.044 72.7392 45.4889 71.988C43.9338 71.2368 42.1567 71.32 40.1575 72.2377C38.1582 73.1554 36.93 74.6427 36.4729 76.6998C36.0443 78.68 36.4578 81.0381 37.7136 83.7739L24.6923 89.7509C22.7448 85.2306 21.9772 81.0605 22.3894 77.2405C22.8543 73.3964 24.2339 70.088 26.5281 67.3151C28.8749 64.518 31.8634 62.2864 35.4936 60.62C41.7544 57.7463 47.1996 57.1895 51.8295 58.9499C56.5119 60.686 60.0364 64.1321 62.4031 69.288C64.9871 74.9175 65.4696 81.0338 63.8507 87.6369C62.2077 94.1875 59.4641 101.116 55.62 108.422L76.9277 98.6414L81.9629 109.611L42.3464 127.795L37.7459 117.773Z" fill="#47CEE1"/>
<path d="M84.3146 70.3525C86.4764 64.5655 89.8911 60.683 94.5586 58.7052C99.2261 56.7273 104.654 56.7643 110.842 58.8161C114.949 60.1779 118.218 62.0519 120.648 64.438C123.134 66.8424 124.707 69.5218 125.368 72.4764C126.085 75.4491 125.934 78.4688 124.918 81.5355C123.719 85.1499 121.835 87.8075 119.265 89.5083C116.714 91.1544 114.097 91.9887 111.415 92.0112L111.306 92.3398C114.083 94.4153 115.975 96.9574 116.983 99.9661C117.991 102.975 117.869 106.369 116.616 110.147C115.49 113.543 113.698 116.291 111.238 118.393C108.851 120.459 105.907 121.731 102.405 122.211C98.9572 122.709 95.1799 122.278 91.0727 120.916C84.5011 118.737 79.7796 115.378 76.9079 110.84C74.091 106.32 73.6534 100.765 75.5951 94.1756L89.231 98.6968C88.4869 101.124 88.5359 103.268 89.3781 105.128C90.2385 106.933 91.9282 108.253 94.4473 109.088C96.5831 109.796 98.4257 109.738 99.9752 108.915C101.598 108.055 102.745 106.612 103.417 104.585C104.288 101.957 104.066 99.786 102.749 98.0731C101.506 96.3236 99.0496 94.8406 95.3805 93.6241L92.7519 92.7525L96.5377 81.3345L99.1663 82.206C101.959 83.1321 104.359 83.411 106.365 83.0429C108.444 82.6382 109.893 81.2037 110.71 78.7394C111.363 76.7679 111.324 75.053 110.592 73.5946C109.86 72.1362 108.535 71.0892 106.619 70.4537C104.538 69.7638 102.768 69.8761 101.31 70.7906C99.9068 71.7233 98.8143 73.0934 98.0326 74.9009L84.3146 70.3525Z" fill="#FF7373"/>
<path d="M50.9567 61.9626V43.2954H83.4775V129H62.5797V61.9626H50.9567Z" fill="#F9BF3C"/>
</svg>
