<svg width="122" height="138" viewBox="0 0 122 138" fill="none" xmlns="http://www.w3.org/2000/svg">
<path d="M60.4801 117.971H28.725L23.6345 133H1.93924L32.7247 47.9158H56.7228L87.5083 133H65.5706L60.4801 117.971ZM55.1472 101.972L44.6026 70.8231L34.1791 101.972H55.1472Z" fill="#F9BF3C"/>
<path d="M59.6569 99.4311C59.6569 93.9908 60.669 89.2147 62.6933 85.1029C64.7809 80.991 67.5959 77.8281 71.1384 75.614C74.681 73.3999 78.6347 72.2929 82.9996 72.2929C86.7319 72.2929 89.9897 73.052 92.7731 74.5702C95.6198 76.0884 97.8022 78.0811 99.3204 80.5482V73.052H115.546V126H99.3204V118.504C97.739 120.971 95.5249 122.964 92.6782 124.482C89.8948 126 86.637 126.759 82.9047 126.759C78.603 126.759 74.681 125.652 71.1384 123.438C67.5959 121.161 64.7809 117.966 62.6933 113.854C60.669 109.679 59.6569 104.871 59.6569 99.4311ZM99.3204 99.526C99.3204 95.4774 98.1818 92.2828 95.9044 89.9422C93.6904 87.6016 90.9702 86.4313 87.744 86.4313C84.5178 86.4313 81.766 87.6016 79.4887 89.9422C77.2746 92.2196 76.1676 95.3825 76.1676 99.4311C76.1676 103.48 77.2746 106.706 79.4887 109.11C81.766 111.45 84.5178 112.621 87.744 112.621C90.9702 112.621 93.6904 111.45 95.9044 109.11C98.1818 106.769 99.3204 103.575 99.3204 99.526Z" fill="#FF7528"/>
</svg>
