<svg width="48" height="45" viewBox="0 0 48 45" fill="none" xmlns="http://www.w3.org/2000/svg">
<path d="M23.3818 0.902586C23.5764 0.303734 24.4236 0.303731 24.6182 0.902583L29.6914 16.5164C29.7784 16.7842 30.028 16.9656 30.3096 16.9656H46.727C47.3567 16.9656 47.6185 17.7713 47.109 18.1414L33.8271 27.7913C33.5993 27.9568 33.504 28.2502 33.591 28.518L38.6642 44.1319C38.8588 44.7307 38.1734 45.2287 37.664 44.8586L24.3821 35.2087C24.1542 35.0432 23.8458 35.0432 23.6179 35.2087L10.336 44.8586C9.82661 45.2287 9.14119 44.7307 9.33577 44.1319L14.409 28.518C14.496 28.2502 14.4007 27.9568 14.1729 27.7913L0.890967 18.1414C0.381554 17.7713 0.643355 16.9656 1.27303 16.9656H17.6904C17.972 16.9656 18.2216 16.7842 18.3086 16.5164L23.3818 0.902586Z" fill="#FCF5F3"/>
</svg>
