<svg id="Camada_7" data-name="Camada 7" xmlns="http://www.w3.org/2000/svg" viewBox="0 0 195.04 308.64">
  <defs>
    <style>
      .cls-1 {
        fill: #fcf5f3;
      }
    </style>
  </defs>
  <g id="hand">
    <path class="cls-1" d="M636.81,509.5a1.5,1.5,0,0,1-1.5-1.5L635,419.5c0-1.12-4-118,0-204.07,0-.59,1.22-13.22,11.24-14.41.75-.17,4-.67,8.09,1.82,6.13,3.69,14.69,14.21,20.64,43.36l17.12,68.48,62.13-101c.09-.14,8.88-14.08,22.94-6.56a15.18,15.18,0,0,1,7.54,8.45c1.84,5.22.88,11.47-2.87,18.6-.12.27-16.11,36.41-31.9,84.77a1.51,1.51,0,1,1-2.86-.94c15.85-48.51,31.9-84.78,32.06-85.14,3.39-6.44,4.29-11.89,2.74-16.28a12.14,12.14,0,0,0-6-6.73l-.12-.06c-11.62-6.26-18.72,5-19,5.47L693.19,318.62a1.83,1.83,0,0,1-3.33-.51L672,246.86C666.35,219,658.53,209,653,205.53c-3.54-2.21-6-1.61-6.07-1.58l-.23,0c-7.69.85-8.67,11.53-8.68,11.63-3.94,85.89,0,202.66,0,203.83l.31,88.55a1.5,1.5,0,0,1-1.5,1.5Z" transform="translate(-633.23 -200.86)"/>
    <path class="cls-1" d="M718.5,393a1.48,1.48,0,0,1-1.08-.46L689.85,364a1.79,1.79,0,0,1-.36-1.92A1.73,1.73,0,0,1,691.1,361c4.77-.05,47.16-.8,65.17-12.65a15.41,15.41,0,0,0,6.66-10,14.38,14.38,0,0,0-2.45-11.11c-2.36-3.3-8.74-6.36-15.19-7.29l-.14,0c-1-.11-10.62-.69-90.6,2a1.5,1.5,0,1,1-.1-3c62.73-2.14,88.1-2.43,91.26-2h0c7.42,1.05,14.33,4.47,17.21,8.5a17.41,17.41,0,0,1,3,13.41,18.41,18.41,0,0,1-8,11.92c-16.69,11-52.85,12.8-63.94,13.09l25.6,26.52a1.5,1.5,0,0,1,0,2.12A1.48,1.48,0,0,1,718.5,393Zm-27.37-29h0Z" transform="translate(-633.23 -200.86)"/>
    <path class="cls-1" d="M823,509.5h0a1.5,1.5,0,0,1-1.46-1.54l2.39-88.5c3-83.53.18-94.53.06-95-6.39-21.81-22.4-17.74-23.07-17.55-20.83,6.63-28.84,52.34-28.92,52.8-1.66,11.6,1.19,18.44,8.48,20.3a15.33,15.33,0,0,0,13.25-3.2c13-10.53,16.28-28.43,16.31-28.61a1.5,1.5,0,0,1,3,.52c-.14.77-3.47,19.17-17.39,30.42A18.25,18.25,0,0,1,779.71,383c-6.19-1.58-13.08-7-10.7-23.66.34-2,8.42-48,31-55.22.25-.07,19.57-5.13,26.8,19.57.12.35,3.13,10.63.06,95.91L824.52,508A1.5,1.5,0,0,1,823,509.5Z" transform="translate(-633.23 -200.86)"/>
    <path class="cls-1" d="M795.5,338a1.52,1.52,0,0,1-.9-.3s-3.71-2.64-10.38-2.1a1.5,1.5,0,0,1-.24-3c7.86-.65,12.24,2.55,12.42,2.69a1.5,1.5,0,0,1-.9,2.7Z" transform="translate(-633.23 -200.86)"/>
    <path class="cls-1" d="M749.5,319a1.56,1.56,0,0,1-.63-.14,1.5,1.5,0,0,1-.73-2c.3-.64,7.42-15.67,18-17.83,1.32-.35,18.57-4.54,25.05,13.27a1.5,1.5,0,0,1-2.82,1c-5.73-15.76-20.83-11.59-21.47-11.4l-.13,0c-9.13,1.83-15.86,16-15.93,16.16A1.51,1.51,0,0,1,749.5,319Z" transform="translate(-633.23 -200.86)"/>
    <path class="cls-1" d="M750,380.79a11.54,11.54,0,0,1-8-3.11c-4.34-4.11-5.6-11.26-3.74-21.24a1.5,1.5,0,0,1,3,.55c-1.63,8.79-.65,15.19,2.85,18.52a8.9,8.9,0,0,0,7.19,2.21c12.46-1.58,16.85-11,17-11.38a1.5,1.5,0,0,1,2.74,1.23c-.21.46-5.21,11.33-19.39,13.12A12.54,12.54,0,0,1,750,380.79Z" transform="translate(-633.23 -200.86)"/>
    <path class="cls-1" d="M769.65,329.48a1.45,1.45,0,0,1-.41-.06l-8.69-2.49a1.5,1.5,0,0,1,.82-2.88l8.69,2.49a1.49,1.49,0,0,1,1,1.85A1.5,1.5,0,0,1,769.65,329.48Z" transform="translate(-633.23 -200.86)"/>
    <path class="cls-1" d="M725.49,327a1.51,1.51,0,0,1-1.47-1.18l-1.52-7a1.5,1.5,0,0,1,2.93-.64l1.53,7a1.51,1.51,0,0,1-1.15,1.79Z" transform="translate(-633.23 -200.86)"/>
    <path class="cls-1" d="M717.5,332h-.12a1.5,1.5,0,0,1-1.38-1.62l1-11.88a1.5,1.5,0,0,1,3,.26l-1,11.88A1.51,1.51,0,0,1,717.5,332Z" transform="translate(-633.23 -200.86)"/>
    <path class="cls-1" d="M669.19,283H650.5a1.5,1.5,0,0,1,0-3h18.69a1.5,1.5,0,0,1,0,3Z" transform="translate(-633.23 -200.86)"/>
    <path class="cls-1" d="M651.5,253a1.5,1.5,0,0,1-.14-3l8.35-.76a1.5,1.5,0,1,1,.27,3l-8.34.75Z" transform="translate(-633.23 -200.86)"/>
    <path class="cls-1" d="M757.5,254a1.42,1.42,0,0,1-.74-.2l-7-4a1.5,1.5,0,0,1,1.48-2.6l7,4a1.5,1.5,0,0,1-.74,2.8Z" transform="translate(-633.23 -200.86)"/>
    <path class="cls-1" d="M747.5,284a1.47,1.47,0,0,1-.54-.1l-13-5a1.5,1.5,0,0,1,1.08-2.8l13,5a1.5,1.5,0,0,1-.54,2.9Z" transform="translate(-633.23 -200.86)"/>
    <path class="cls-1" d="M733.5,416a1.5,1.5,0,0,1-.75-2.8l5.44-3.12a1.5,1.5,0,1,1,1.49,2.6l-5.43,3.12A1.48,1.48,0,0,1,733.5,416Z" transform="translate(-633.23 -200.86)"/>
  </g>
</svg>
