<svg width="124" height="110" viewBox="0 0 124 110" fill="none" xmlns="http://www.w3.org/2000/svg">
<path fill-rule="evenodd" clip-rule="evenodd" d="M14.8998 66.2413C13.4514 65.1691 12.0641 63.9766 10.7514 62.664C-3.58381 48.3287 -3.58381 25.0867 10.7514 10.7514C24.792 -3.28916 47.377 -3.57776 61.7689 9.88565C76.1607 -3.57776 98.7457 -3.28916 112.786 10.7514C127.122 25.0867 127.122 48.3287 112.786 62.664C111.474 63.9766 110.086 65.1691 108.638 66.2413C108.209 67.0413 107.658 67.7927 106.983 68.4676L68.4676 106.983C64.768 110.682 58.7697 110.682 55.0701 106.983L16.5551 68.4676C15.8802 67.7927 15.3284 67.0413 14.8998 66.2413Z" fill="#FF7373"/>
</svg>
