<svg xmlns="http://www.w3.org/2000/svg" viewBox="0 0 48 48"><defs><style>.cls-1{fill:#f60;opacity:0;}.cls-2{fill:#8455bf;}</style></defs><g id="Numeros"><g id="_2" data-name="2"><rect class="cls-1" width="48" height="48"/><path class="cls-2" d="M417.58,238.88c-.56,0-1.15,0-1.8,0H408a5.63,5.63,0,0,1-5.62-5.62v-9.79a18.65,18.65,0,0,1,1-5.93,24,24,0,0,0,1.55-8.22v-1a2.77,2.77,0,1,1,5.53,0v4.86c.23,4.19,3,4.21,3.08,4.21l11.88.49,12.68.28a2.78,2.78,0,1,1,0,5.53l-10.78-.08A78.75,78.75,0,0,1,425,234.35a6.35,6.35,0,0,1-6,4.51Zm-9.95-32.5a1.91,1.91,0,0,0-1.86,1.94v1a25,25,0,0,1-1.6,8.53,18,18,0,0,0-.92,5.63v9.78A4.72,4.72,0,0,0,408,238h7.82l1.81,0,1.35,0a5.46,5.46,0,0,0,5.18-3.87,78.87,78.87,0,0,0,2.28-11l0-.4,11.59.09a1.88,1.88,0,1,0,0-3.72l-12.7-.28-11.87-.49h0c-.08,0-3.7-.07-4-5.09v-4.89A1.9,1.9,0,0,0,407.63,206.38Z" transform="translate(-397.73 -198.17)"/></g></g></svg>