<svg xmlns="http://www.w3.org/2000/svg" viewBox="0 0 48 48"><defs><style>.cls-1{fill:#f60;opacity:0;}.cls-2{fill:#8455bf;}</style></defs><g id="Numeros"><g id="_1" data-name="1"><rect class="cls-1" width="48" height="48"/><path class="cls-2" d="M368.88,238.47l-1.8,0h-7.82a5.62,5.62,0,0,1-5.62-5.62v-9.78a18.55,18.55,0,0,1,1-5.93,24.28,24.28,0,0,0,1.55-8.23v-1a2.77,2.77,0,1,1,5.53,0v4.87c.23,4.19,3,4.22,3.08,4.2h0l11.86.49a2.16,2.16,0,0,1,2.08,1.94c.32,3.52-1.6,11.71-2.46,14.53a6.34,6.34,0,0,1-6,4.51ZM358.93,206a1.91,1.91,0,0,0-1.86,1.94v1a25.07,25.07,0,0,1-1.6,8.54,17.91,17.91,0,0,0-.92,5.63v9.77a4.71,4.71,0,0,0,4.71,4.71h7.82l1.81,0h1.35a5.46,5.46,0,0,0,5.17-3.88c.82-2.68,2.73-10.83,2.43-14.18a1.26,1.26,0,0,0-1.21-1.11l-11.87-.49c-.32,0-3.71-.23-4-5.09v-4.89A1.91,1.91,0,0,0,358.93,206Z" transform="translate(-342.21 -197.77)"/></g></g></svg>