<svg xmlns="http://www.w3.org/2000/svg" viewBox="0 0 48 48"><defs><style>.cls-1{fill:#f60;opacity:0;}.cls-2{fill:#8455bf;}</style></defs><g id="Numeros"><g id="_9" data-name="9"><rect class="cls-1" width="48" height="48"/><g id="_6" data-name="6"><path class="cls-2" d="M360.22,345.72a4.55,4.55,0,0,1-4.08-2.53l-.95-1.92a6.3,6.3,0,0,1,.07-5.72l2.48-6.91.85.3-2.5,7a5.46,5.46,0,0,0-.09,5l.95,1.92a3.66,3.66,0,0,0,4.24,1.9l7.62-2.1.24.88-7.62,2.09A4.57,4.57,0,0,1,360.22,345.72Z" transform="translate(-342.53 -312.05)"/><rect class="cls-2" x="363.41" y="339.55" width="0.91" height="2.37" transform="translate(-456.49 -113.35) rotate(-26.57)"/><path class="cls-2" d="M371.62,352a3.2,3.2,0,0,1-3.15-3.25V343c-.24-4.32-2.74-4.89-3.47-5l-3.44,4-.69-.59,3.72-4.34h.2c.1,0,4.27,0,4.59,5.87v5.69a2.24,2.24,0,1,0,4.48,0v-1.14a29.16,29.16,0,0,1,1.86-9.92,20.66,20.66,0,0,0,1.09-6.59,21.91,21.91,0,0,1,.73-6.13,1.64,1.64,0,0,0-.19-1.36,1.69,1.69,0,0,0-1.2-.75l-11.63-1.71-6,4.79a9,9,0,0,0-1.62,3l-.3.93a8.94,8.94,0,0,0-.43,2.76v3.22h-.91v-3.22a9.86,9.86,0,0,1,.48-3l.3-.93a9.81,9.81,0,0,1,1.81-3.29l.07-.07,6.39-5.07,12,1.77a2.58,2.58,0,0,1,1.84,1.16,2.52,2.52,0,0,1,.3,2.12,21.67,21.67,0,0,0-.7,5.85,21.94,21.94,0,0,1-1.13,6.91,28.14,28.14,0,0,0-1.81,9.61v1.14A3.2,3.2,0,0,1,371.62,352Z" transform="translate(-342.53 -312.05)"/></g></g></g></svg>