<svg xmlns="http://www.w3.org/2000/svg" viewBox="0 0 48 48"><defs><style>.cls-1{fill:#f60;opacity:0;}.cls-2{fill:#8455bf;}</style></defs><g id="Numeros"><g id="_6" data-name="6"><rect class="cls-1" width="48" height="48"/><g id="_6-2" data-name="6"><path class="cls-2" d="M431.29,289.64l-.86-.31,2.51-7a5.46,5.46,0,0,0,.09-5l-.95-1.91a3.64,3.64,0,0,0-4.24-1.9l-7.62,2.09-.24-.88,7.62-2.09a4.56,4.56,0,0,1,5.29,2.37l.95,1.92a6.33,6.33,0,0,1-.07,5.72Z" transform="translate(-398.5 -258.23)"/><rect class="cls-2" x="424.71" y="276.36" width="0.91" height="2.37" transform="translate(-477.74 -38.74) rotate(-26.57)"/><path class="cls-2" d="M424.76,298.13l-12-1.77a2.53,2.53,0,0,1-1.84-1.16,2.5,2.5,0,0,1-.3-2.11,21.6,21.6,0,0,0,.69-5.86,21.53,21.53,0,0,1,1.14-6.9,28.19,28.19,0,0,0,1.81-9.62v-1.14a3.15,3.15,0,1,1,6.3,0v5.67c.23,4.33,2.74,4.9,3.47,5l3.44-4,.69.59-3.72,4.35h-.21s-4.26,0-4.58-5.86v-5.7a2.24,2.24,0,1,0-4.48,0v1.14a29,29,0,0,1-1.87,9.93,20.86,20.86,0,0,0-1.08,6.59,21.89,21.89,0,0,1-.73,6.12,1.64,1.64,0,0,0,.19,1.36,1.66,1.66,0,0,0,1.2.75l11.63,1.72,6.05-4.8a9,9,0,0,0,1.61-2.95l.31-.94a9.2,9.2,0,0,0,.43-2.76v-3.22h.91v3.22a9.86,9.86,0,0,1-.48,3l-.3.94a10,10,0,0,1-1.81,3.29l-.07.06Z" transform="translate(-398.5 -258.23)"/></g></g></g></svg>