<svg xmlns="http://www.w3.org/2000/svg" viewBox="0 0 48 48"><defs><style>.cls-1{fill:#f60;opacity:0;}.cls-2{fill:#8455bf;}</style></defs><g id="Numeros"><g id="_5" data-name="5"><rect class="cls-1" width="48" height="48"/><g id="_5-2" data-name="5"><path class="cls-2" d="M359.94,269.92" transform="translate(-341.95 -255.43)"/><path class="cls-2" d="M371.16,269.35" transform="translate(-341.95 -255.43)"/><path class="cls-2" d="M374.74,274.92" transform="translate(-341.95 -255.43)"/><path class="cls-2" d="M375.08,273" transform="translate(-341.95 -255.43)"/><path class="cls-2" d="M373.17,283.73" transform="translate(-341.95 -255.43)"/><polygon class="cls-2" points="32.34 30.34 31.43 30.34 31.43 24.56 33.2 14.63 34.09 14.79 32.34 24.64 32.34 30.34"/><path class="cls-2" d="M373.06,271.53" transform="translate(-341.95 -255.43)"/><path class="cls-2" d="M373.17,267.94" transform="translate(-341.95 -255.43)"/><path class="cls-2" d="M377.74,263.14" transform="translate(-341.95 -255.43)"/><path class="cls-2" d="M375.79,263.27" transform="translate(-341.95 -255.43)"/><path class="cls-2" d="M372.88,263.45" transform="translate(-341.95 -255.43)"/><path class="cls-2" d="M375.88,271.11,375,271l.85-4.79a1.81,1.81,0,0,0-.43-1.5,2,2,0,0,0-1.61-.7l-3,.08A1.88,1.88,0,0,0,369,266a1.74,1.74,0,0,0,.64,1.22,2,2,0,0,0,1.42.44l2.13-.13.06.9-2.14.14a2.91,2.91,0,0,1-2.05-.65,2.59,2.59,0,0,1-1-1.86,2.78,2.78,0,0,1,2.67-2.88l3-.09a3,3,0,0,1,2.32,1,2.67,2.67,0,0,1,.65,2.2Z" transform="translate(-341.95 -255.43)"/><path class="cls-2" d="M374.84,265.58" transform="translate(-341.95 -255.43)"/><path class="cls-2" d="M363.56,269.29" transform="translate(-341.95 -255.43)"/><path class="cls-2" d="M368.81,273.34" transform="translate(-341.95 -255.43)"/><path class="cls-2" d="M368.48,271.41" transform="translate(-341.95 -255.43)"/><path class="cls-2" d="M370.3,282.15" transform="translate(-341.95 -255.43)"/><polygon class="cls-2" points="27.52 24.08 27.13 24.07 27.03 23.65 25.6 13.18 26.5 13.05 27.57 20.88 29.05 12.28 29.94 12.43 27.95 24.05 27.52 24.08"/><rect class="cls-2" x="363.16" y="267.7" width="0.91" height="3.74" transform="translate(-381.79 -191.06) rotate(-9.59)"/><path class="cls-2" d="M366.08,270.71" transform="translate(-341.95 -255.43)"/><path class="cls-2" d="M365,267.29" transform="translate(-341.95 -255.43)"/><path class="cls-2" d="M367.66,261.23" transform="translate(-341.95 -255.43)"/><path class="cls-2" d="M365.87,262" transform="translate(-341.95 -255.43)"/><path class="cls-2" d="M363.2,263.16" transform="translate(-341.95 -255.43)"/><path class="cls-2" d="M367.7,269.51l-.81-4.79a1.77,1.77,0,0,0-.91-1.27,2.1,2.1,0,0,0-1.75-.12l-2.83,1.1a2,2,0,0,0-1,1,1.71,1.71,0,0,0,1,2.31,2,2,0,0,0,1.49-.06l2-.85.36.84-2,.85a2.94,2.94,0,0,1-2.16.07,2.61,2.61,0,0,1-1.52-3.52,2.91,2.91,0,0,1,1.53-1.52l2.85-1.11a3,3,0,0,1,2.52.18,2.71,2.71,0,0,1,1.36,1.86l.82,4.84Z" transform="translate(-341.95 -255.43)"/><path class="cls-2" d="M365.76,264.51" transform="translate(-341.95 -255.43)"/><path class="cls-2" d="M362.84,283.55a2.79,2.79,0,0,1-2.71-2.85v-4.86H361v4.86a1.89,1.89,0,0,0,1.8,1.95,1.73,1.73,0,0,0,1-.33l.53.74A2.62,2.62,0,0,1,362.84,283.55Z" transform="translate(-341.95 -255.43)"/><rect class="cls-2" x="22.68" y="20.41" width="0.91" height="3.43"/><path class="cls-2" d="M365.54,278.56h-.91V273.7a1.8,1.8,0,1,0-3.59,0v4.86h-.91V273.7a2.71,2.71,0,1,1,5.41,0Z" transform="translate(-341.95 -255.43)"/><path class="cls-2" d="M362.84,277.65" transform="translate(-341.95 -255.43)"/><path class="cls-2" d="M358.3,283.55a2.79,2.79,0,0,1-2.71-2.85v-4.86h.91v4.86a1.8,1.8,0,1,0,3.59,0v-4.86H361v4.86A2.78,2.78,0,0,1,358.3,283.55Z" transform="translate(-341.95 -255.43)"/><path class="cls-2" d="M361,280.38h-.91v-4.87a1.8,1.8,0,1,0-3.59,0v4.87h-.91v-4.87a2.71,2.71,0,1,1,5.41,0Z" transform="translate(-341.95 -255.43)"/><path class="cls-2" d="M358.3,277.65" transform="translate(-341.95 -255.43)"/><path class="cls-2" d="M369.57,297.62h-9.79a5.62,5.62,0,0,1-5.56-6.45l1.38-10.4.9.12-1.38,10.41a4.72,4.72,0,0,0,4.66,5.42h9.79a4.35,4.35,0,0,0,4.3-3.75l.63-4a2.24,2.24,0,0,0-.49-2.35l-6.35-6.33a2,2,0,0,0-2.85-.17,1.72,1.72,0,0,0-.46,1.36,2.4,2.4,0,0,0,.73,1.49l2.55,2.51-.64.65-2.54-2.51a3.23,3.23,0,0,1-1-2.06,2.61,2.61,0,0,1,.7-2.07,3,3,0,0,1,4.14.15l6.36,6.33a3.07,3.07,0,0,1,.72,3.22l-.6,4A5.26,5.26,0,0,1,369.57,297.62Z" transform="translate(-341.95 -255.43)"/><path class="cls-2" d="M358.3,278.07" transform="translate(-341.95 -255.43)"/><path class="cls-2" d="M364.9,291.47c-.81-5.94,3.94-7,4-7l.19.89c-.16,0-4,.94-3.28,6Z" transform="translate(-341.95 -255.43)"/></g></g></g></svg>