<svg xmlns="http://www.w3.org/2000/svg" viewBox="0 0 48 48"><defs><style>.cls-1{fill:#f60;opacity:0;}.cls-2{fill:#8455bf;}</style></defs><g id="Numeros"><g id="_0" data-name="0"><rect class="cls-1" width="48" height="48"/><g id="_0-2" data-name="0"><path class="cls-2" d="M312.26,234.92l-7.81-1.47a6.45,6.45,0,0,1-4.59-3.37l-2.48-4.86a1.9,1.9,0,0,1-.55-1.34,1.92,1.92,0,0,1,.61-1.4l.13-.12a1.93,1.93,0,0,1-.74-1.51v-.11l1.28-5.09a6.18,6.18,0,0,1,4.95-4.5l7.08-1.29a8.66,8.66,0,0,1,6.74,1.55l6.23,6.33a4.75,4.75,0,0,1,1.4,3.35v9.48a3.49,3.49,0,0,1-3.2,3.39Zm-13.39-12.1a1.17,1.17,0,0,0-.81.32,1,1,0,0,0-.32.74,1,1,0,0,0,.32.74l.1.12,2.5,4.93a5.58,5.58,0,0,0,4,2.89L312.3,234l8.93-1a2.57,2.57,0,0,0,2.38-2.48v-9.48a3.88,3.88,0,0,0-1.13-2.72l-6.18-6.28a7.76,7.76,0,0,0-6-1.34l-7.08,1.3a5.26,5.26,0,0,0-4.23,3.82l-1.26,5a1.11,1.11,0,0,0,1.15,1c.35,0,1.42-1.38,2.27-2.86a8,8,0,0,1,7.47-4.7,7.89,7.89,0,0,1,7.85,7.4,7.28,7.28,0,0,1-2.13,5.23,8.2,8.2,0,0,1-5.82,2.39,8,8,0,0,1-7.26-4.45,4.14,4.14,0,0,0-1.49-1.73A1.33,1.33,0,0,0,298.87,222.82Zm1.11-.61a1.54,1.54,0,0,1,.36.27,4.94,4.94,0,0,1,1.75,2.05,7.07,7.07,0,0,0,6.44,3.93,7.3,7.3,0,0,0,5.18-2.12,6.32,6.32,0,0,0,1.86-4.57,7,7,0,0,0-6.95-6.51,7,7,0,0,0-6.65,4.19A13.45,13.45,0,0,1,300,222.21Z" transform="translate(-286.67 -198.32)"/><path class="cls-2" d="M301.52,222.76a1.73,1.73,0,0,1-.74-.16,1.82,1.82,0,0,1-1-1.2l.87-.24a.9.9,0,0,0,.51.61,1,1,0,0,0,.87,0,5,5,0,0,0,1.77-1.28c1.73-2.44,3.52-4.09,6.45-4a8.39,8.39,0,0,1,5.59,2.61l-.67.6a7.43,7.43,0,0,0-4.93-2.3h-.08c-2.53,0-4,1.4-5.62,3.65a5.84,5.84,0,0,1-2.11,1.56A2,2,0,0,1,301.52,222.76Z" transform="translate(-286.67 -198.32)"/></g></g></g></svg>