<svg xmlns="http://www.w3.org/2000/svg" viewBox="0 0 48 48"><defs><style>.cls-1{fill:#f60;opacity:0;}.cls-2{fill:#8455bf;}</style></defs><g id="Numeros"><g id="_7" data-name="7"><rect class="cls-1" width="48" height="48"/><g id="_7-2" data-name="7"><path class="cls-2" d="M483,299.48a3.37,3.37,0,0,1-3.17-3.54l0-5.75H468.11a6.43,6.43,0,0,1-4.87-2.24l-3.41-4a4.74,4.74,0,0,1-1.09-3.9c.69-4,3.67-13.15,16.8-13,.07,0,9.42-.13,10.6,6.57l.05,22.29A3.37,3.37,0,0,1,483,299.48ZM480,282.8h.9l-.09,13.14a2.29,2.29,0,1,0,4.52,0l0-22.21c-1-5.87-9.61-5.74-9.7-5.74-12-.14-15.1,7.59-15.9,12.22a3.83,3.83,0,0,0,.87,3.16l3.42,4a5.51,5.51,0,0,0,4.18,1.92H479.9Z" transform="translate(-453.15 -259.28)"/><path class="cls-2" d="M478.81,283.51" transform="translate(-453.15 -259.28)"/><rect class="cls-2" x="468.44" y="282.93" width="0.91" height="7.73" transform="translate(-526.82 115.51) rotate(-40.66)"/><rect class="cls-2" x="474.66" y="282.93" width="0.91" height="7.73" transform="translate(-525.32 119.56) rotate(-40.66)"/><path class="cls-2" d="M492.35,288.24a3.86,3.86,0,0,1-1.2-.19l-5.18-1.7.28-.87,5.18,1.71a2.86,2.86,0,0,0,2-.08,2.08,2.08,0,0,0,1.2-1.27,2.12,2.12,0,0,0-.23-1.74,2.85,2.85,0,0,0-1.59-1.22c-.19-.05-5.34-1.32-7.46-4.53l.76-.5c1.92,2.91,6.9,4.14,6.95,4.16a3.77,3.77,0,0,1,2.12,1.63,2.94,2.94,0,0,1-1.38,4.3A3.62,3.62,0,0,1,492.35,288.24Z" transform="translate(-453.15 -259.28)"/></g></g></g></svg>