<svg xmlns="http://www.w3.org/2000/svg" viewBox="0 0 48 48"><defs><style>.cls-1{fill:#f60;opacity:0;}.cls-2{fill:#8455bf;}</style></defs><g id="Numeros"><g id="_3" data-name="3"><rect class="cls-1" width="48" height="48"/><path class="cls-2" d="M472.24,234.25l-1.8,0h-7.82a5.62,5.62,0,0,1-5.62-5.62v-9.78a18.55,18.55,0,0,1,1-5.93l.16-.45c.43-1.26,2.34-1.46,3.44-1.47H465a6.17,6.17,0,0,1,3.36,1h0a5.13,5.13,0,0,0,2.65.87l10.15.41,11.19-1.19a2.94,2.94,0,0,1,3.4,2.35,2.56,2.56,0,0,1-.67,2.07,3.23,3.23,0,0,1-2,1.06s-4.52.8-7.87,1.46l9.5,0a2.78,2.78,0,1,1,0,5.53l-10.32,0,9.72,2.54a2.92,2.92,0,0,1,2.46,3.31,2.59,2.59,0,0,1-1.29,1.75,3.23,3.23,0,0,1-2.27.35l-13.19-3.28c0,.15-.08.28-.12.41a6.34,6.34,0,0,1-6,4.51Zm-10.65-22.36c-1.4,0-2.42.34-2.59.85l-.17.47a17.91,17.91,0,0,0-.92,5.63v9.77a4.71,4.71,0,0,0,4.71,4.71h7.82l1.81,0h1.35a5.45,5.45,0,0,0,5.17-3.87c.08-.24.15-.51.24-.82l.12-.42,14,3.49a2.37,2.37,0,0,0,1.62-.25,1.73,1.73,0,0,0,.86-1.15,2,2,0,0,0-1.77-2.25l-13.08-3.41v-.47a.52.52,0,0,1,.51-.44l13.36,0a1.88,1.88,0,1,0,0-3.72l-12.74,0a.57.57,0,0,1-.55-.49.56.56,0,0,1,.4-.6c2.21-.6,10.76-2.1,11.12-2.17a2.29,2.29,0,0,0,1.5-.76,1.72,1.72,0,0,0,.45-1.36,2,2,0,0,0-2.39-1.56l-11.26,1.19-1.19,0-9-.38a6.06,6.06,0,0,1-3.11-1h0a5.13,5.13,0,0,0-2.87-.87ZM482,219.72Z" transform="translate(-453.37 -198.61)"/></g></g></svg>