<svg xmlns="http://www.w3.org/2000/svg" viewBox="0 0 48 48"><defs><style>.cls-1{fill:#f60;opacity:0;}.cls-2{fill:#8455bf;}</style></defs><g id="Numeros"><g id="_8" data-name="8"><rect class="cls-1" width="48" height="48"/><g id="S"><path class="cls-2" d="M314,336a2.78,2.78,0,0,1-2.7-2.85v-4.87h.9v4.87a1.88,1.88,0,0,0,1.8,1.94Z" transform="translate(-288.79 -312.69)"/><path class="cls-2" d="M316.2,328.29" transform="translate(-288.79 -312.69)"/><path class="cls-2" d="M316.65,331.93h-.91v-5.78a1.8,1.8,0,1,0-3.59,0V331h-.9v-4.87a2.7,2.7,0,1,1,5.4,0Z" transform="translate(-288.79 -312.69)"/><path class="cls-2" d="M314,330.11" transform="translate(-288.79 -312.69)"/><path class="cls-2" d="M316.24,328.29" transform="translate(-288.79 -312.69)"/><path class="cls-2" d="M320.74,333.16" transform="translate(-288.79 -312.69)"/><path class="cls-2" d="M320.74,331.21" transform="translate(-288.79 -312.69)"/><rect class="cls-2" x="31.49" y="15.6" width="0.91" height="7.45"/><path class="cls-2" d="M316.69,331.93h-.9v-5.78a2.7,2.7,0,1,1,5.4,0V331h-.91v-4.87a1.8,1.8,0,1,0-3.59,0Z" transform="translate(-288.79 -312.69)"/><path class="cls-2" d="M318.49,330.11" transform="translate(-288.79 -312.69)"/><path class="cls-2" d="M309.41,336a2.78,2.78,0,0,1-2.7-2.85v-4.87h.91v4.87a1.8,1.8,0,1,0,3.59,0v-4.87h.9v4.87A2.78,2.78,0,0,1,309.41,336Z" transform="translate(-288.79 -312.69)"/><path class="cls-2" d="M312.11,331h-.9v-4.87a1.8,1.8,0,1,0-3.59,0V331h-.91v-4.87a2.7,2.7,0,1,1,5.4,0Z" transform="translate(-288.79 -312.69)"/><path class="cls-2" d="M309.41,330.11" transform="translate(-288.79 -312.69)"/><path class="cls-2" d="M304.87,336a2.78,2.78,0,0,1-2.7-2.85v-4.87h.91v4.87a1.8,1.8,0,1,0,3.59,0v-4.87h.9v4.87A2.78,2.78,0,0,1,304.87,336Z" transform="translate(-288.79 -312.69)"/><path class="cls-2" d="M307.57,332.83h-.9V328a1.8,1.8,0,1,0-3.59,0v4.86h-.91V328a2.7,2.7,0,1,1,5.4,0Z" transform="translate(-288.79 -312.69)"/><path class="cls-2" d="M304.87,330.11" transform="translate(-288.79 -312.69)"/><path class="cls-2" d="M318.87,350.08H306.35a5.62,5.62,0,0,1-5.56-6.45l1.38-10.4.9.12-1.38,10.4a4.71,4.71,0,0,0,4.66,5.42h12.52a4.34,4.34,0,0,0,4.29-3.74l.63-4.05a2.22,2.22,0,0,0-.48-2.35L317,332.71a2,2,0,0,0-2.85-.17,1.75,1.75,0,0,0-.45,1.36,2.3,2.3,0,0,0,.73,1.49l2.54,2.51-.63.65L313.75,336a3.32,3.32,0,0,1-1-2.06,2.64,2.64,0,0,1,.71-2.07,2.94,2.94,0,0,1,4.14.15l6.36,6.33a3.09,3.09,0,0,1,.72,3.22l-.61,3.95A5.26,5.26,0,0,1,318.87,350.08Z" transform="translate(-288.79 -312.69)"/><path class="cls-2" d="M304.87,330.53" transform="translate(-288.79 -312.69)"/><path class="cls-2" d="M314.2,343.93c-.82-5.94,3.94-7,4-7l.2.88c-.17,0-4,.94-3.28,6Z" transform="translate(-288.79 -312.69)"/></g></g></g></svg>