<svg xmlns="http://www.w3.org/2000/svg" viewBox="0 0 48 48"><defs><style>.cls-1{fill:#f60;opacity:0;}.cls-2{fill:#8455bf;}</style></defs><g id="Numeros"><g id="_4" data-name="4"><rect class="cls-1" width="48" height="48"/><g id="_4-2" data-name="4"><path id="_3" data-name="3" class="cls-2" d="M309.54,286.89" transform="translate(-286.59 -254.58)"/><path class="cls-2" d="M322,292.39a2.85,2.85,0,0,1-.76-.11l-11.65-4.89a6.44,6.44,0,0,1-2.73.65l-1.37,0c-.56,0-1.15,0-1.79,0h-7.83a5.62,5.62,0,0,1-5.62-5.62v-9.78a18.6,18.6,0,0,1,1-5.93l.16-.45c.44-1.26,2.35-1.46,3.45-1.47h3.39a6,6,0,0,1,3.36,1,5.24,5.24,0,0,0,2.65.86l10.15.41,11.19-1.19a2.93,2.93,0,0,1,3.4,2.35,2.61,2.61,0,0,1-.66,2.08,3.27,3.27,0,0,1-2.05,1.05c-.05,0-4.51.8-7.86,1.47l9.5,0a2.78,2.78,0,1,1,0,5.53l-10.32,0,9.73,2.54a2.93,2.93,0,0,1,2.45,3.31,2.6,2.6,0,0,1-1.29,1.76,3.28,3.28,0,0,1-2.27.35l-9.45-1.89c7.12,3,7.32,3.3,7.4,3.4a2.77,2.77,0,0,1,0,3.29A2.66,2.66,0,0,1,322,292.39Zm-12.45-6,.19.09,11.8,4.94a1.69,1.69,0,0,0,1.9-.74,1.85,1.85,0,0,0,0-2.22c-.42-.29-6.69-3-10.54-4.6l-.37-.15.07-.47a.51.51,0,0,1,.6-.36h0l13.2,2.63a2.36,2.36,0,0,0,1.64-.25,1.7,1.7,0,0,0,.85-1.15,2,2,0,0,0-1.77-2.24L314,278.45V278a.52.52,0,0,1,.51-.45l13.36,0a1.88,1.88,0,1,0,0-3.71l-12.74-.06a.56.56,0,0,1-.55-.48.55.55,0,0,1,.41-.6c2.2-.6,10.75-2.11,11.12-2.17a2.36,2.36,0,0,0,1.49-.76,1.73,1.73,0,0,0,.45-1.36,2,2,0,0,0-2.39-1.57L314.4,268l-1.18,0-9.05-.38a6.06,6.06,0,0,1-3.11-1,5.28,5.28,0,0,0-2.86-.87h-3.39c-1.4,0-2.41.34-2.59.86l-.17.46a18,18,0,0,0-.92,5.63v9.77a4.72,4.72,0,0,0,4.71,4.72h7.83c.65,0,1.25,0,1.8,0l1.35,0a5.5,5.5,0,0,0,2.51-.64Zm5.7-12.87Z" transform="translate(-286.59 -254.58)"/></g></g></g></svg>